<?xml version="1.0" encoding="UTF-8"?>
<!DOCTYPE svg PUBLIC "-//W3C//DTD SVG 1.1//EN" "http://www.w3.org/Graphics/SVG/1.1/DTD/svg11.dtd">
<svg xmlns="http://www.w3.org/2000/svg" version="1.1" width="768px" height="768px" style="shape-rendering:geometricPrecision; text-rendering:geometricPrecision; image-rendering:optimizeQuality; fill-rule:evenodd; clip-rule:evenodd" xmlns:xlink="http://www.w3.org/1999/xlink">
<g><path style="opacity:1" fill="#87896d" d="M -0.5,-0.5 C 0.166667,-0.5 0.833333,-0.5 1.5,-0.5C 1.16667,0.5 0.5,1.16667 -0.5,1.5C -0.5,0.833333 -0.5,0.166667 -0.5,-0.5 Z"/></g>
<g><path style="opacity:1" fill="#abb087" d="M 1.5,-0.5 C 32.8333,-0.5 64.1667,-0.5 95.5,-0.5C 95.5,31.5 95.5,63.5 95.5,95.5C 63.5,95.5 31.5,95.5 -0.5,95.5C -0.5,64.1667 -0.5,32.8333 -0.5,1.5C 0.5,1.16667 1.16667,0.5 1.5,-0.5 Z"/></g>
<g><path style="opacity:1" fill="#7d8068" d="M 95.5,-0.5 C 127.5,-0.5 159.5,-0.5 191.5,-0.5C 191.5,31.5 191.5,63.5 191.5,95.5C 159.5,95.5 127.5,95.5 95.5,95.5C 95.5,63.5 95.5,31.5 95.5,-0.5 Z"/></g>
<g><path style="opacity:1" fill="#abb087" d="M 191.5,-0.5 C 223.5,-0.5 255.5,-0.5 287.5,-0.5C 287.5,31.5 287.5,63.5 287.5,95.5C 255.5,95.5 223.5,95.5 191.5,95.5C 191.5,63.5 191.5,31.5 191.5,-0.5 Z"/></g>
<g><path style="opacity:1" fill="#7d8068" d="M 287.5,-0.5 C 319.5,-0.5 351.5,-0.5 383.5,-0.5C 383.5,31.5 383.5,63.5 383.5,95.5C 351.5,95.5 319.5,95.5 287.5,95.5C 287.5,63.5 287.5,31.5 287.5,-0.5 Z"/></g>
<g><path style="opacity:1" fill="#abb087" d="M 383.5,-0.5 C 415.5,-0.5 447.5,-0.5 479.5,-0.5C 479.5,31.5 479.5,63.5 479.5,95.5C 447.5,95.5 415.5,95.5 383.5,95.5C 383.5,63.5 383.5,31.5 383.5,-0.5 Z"/></g>
<g><path style="opacity:1" fill="#7d8068" d="M 479.5,-0.5 C 511.5,-0.5 543.5,-0.5 575.5,-0.5C 575.5,31.5 575.5,63.5 575.5,95.5C 543.5,95.5 511.5,95.5 479.5,95.5C 479.5,63.5 479.5,31.5 479.5,-0.5 Z"/></g>
<g><path style="opacity:1" fill="#abb087" d="M 575.5,-0.5 C 607.5,-0.5 639.5,-0.5 671.5,-0.5C 671.5,-0.166667 671.5,0.166667 671.5,0.5C 671.5,32.1667 671.5,63.8333 671.5,95.5C 639.5,95.5 607.5,95.5 575.5,95.5C 575.5,63.5 575.5,31.5 575.5,-0.5 Z"/></g>
<g><path style="opacity:1" fill="#7d8067" d="M 671.5,0.5 C 703.167,0.5 734.833,0.5 766.5,0.5C 766.5,32.1667 766.5,63.8333 766.5,95.5C 734.833,95.5 703.167,95.5 671.5,95.5C 671.5,63.8333 671.5,32.1667 671.5,0.5 Z"/></g>
<g><path style="opacity:1" fill="#84876d" d="M 671.5,0.5 C 671.5,0.166667 671.5,-0.166667 671.5,-0.5C 703.5,-0.5 735.5,-0.5 767.5,-0.5C 767.5,31.5 767.5,63.5 767.5,95.5C 767.167,95.5 766.833,95.5 766.5,95.5C 766.5,63.8333 766.5,32.1667 766.5,0.5C 734.833,0.5 703.167,0.5 671.5,0.5 Z"/></g>
<g><path style="opacity:1" fill="#aaaf87" d="M 95.5,95.5 C 127.5,95.5 159.5,95.5 191.5,95.5C 191.5,127.5 191.5,159.5 191.5,191.5C 159.5,191.5 127.5,191.5 95.5,191.5C 95.5,159.5 95.5,127.5 95.5,95.5 Z"/></g>
<g><path style="opacity:1" fill="#7e8268" d="M 191.5,95.5 C 223.5,95.5 255.5,95.5 287.5,95.5C 287.5,127.5 287.5,159.5 287.5,191.5C 255.5,191.5 223.5,191.5 191.5,191.5C 191.5,159.5 191.5,127.5 191.5,95.5 Z"/></g>
<g><path style="opacity:1" fill="#aaaf87" d="M 287.5,95.5 C 319.5,95.5 351.5,95.5 383.5,95.5C 383.5,127.5 383.5,159.5 383.5,191.5C 351.5,191.5 319.5,191.5 287.5,191.5C 287.5,159.5 287.5,127.5 287.5,95.5 Z"/></g>
<g><path style="opacity:1" fill="#7e8268" d="M 383.5,95.5 C 415.5,95.5 447.5,95.5 479.5,95.5C 479.5,127.5 479.5,159.5 479.5,191.5C 447.5,191.5 415.5,191.5 383.5,191.5C 383.5,159.5 383.5,127.5 383.5,95.5 Z"/></g>
<g><path style="opacity:1" fill="#aaaf87" d="M 479.5,95.5 C 511.5,95.5 543.5,95.5 575.5,95.5C 575.5,127.5 575.5,159.5 575.5,191.5C 543.5,191.5 511.5,191.5 479.5,191.5C 479.5,159.5 479.5,127.5 479.5,95.5 Z"/></g>
<g><path style="opacity:1" fill="#7e8268" d="M 575.5,95.5 C 607.5,95.5 639.5,95.5 671.5,95.5C 671.5,127.5 671.5,159.5 671.5,191.5C 639.5,191.5 607.5,191.5 575.5,191.5C 575.5,159.5 575.5,127.5 575.5,95.5 Z"/></g>
<g><path style="opacity:1" fill="#abb087" d="M 671.5,95.5 C 703.167,95.5 734.833,95.5 766.5,95.5C 766.833,95.5 767.167,95.5 767.5,95.5C 767.5,127.5 767.5,159.5 767.5,191.5C 735.5,191.5 703.5,191.5 671.5,191.5C 671.5,159.5 671.5,127.5 671.5,95.5 Z"/></g>
<g><path style="opacity:1" fill="#7d8068" d="M -0.5,95.5 C 31.5,95.5 63.5,95.5 95.5,95.5C 95.5,127.5 95.5,159.5 95.5,191.5C 63.5,191.5 31.5,191.5 -0.5,191.5C -0.5,159.5 -0.5,127.5 -0.5,95.5 Z"/></g>
<g><path style="opacity:1" fill="#7c7f67" d="M 192.5,96.5 C 223.833,96.5 255.167,96.5 286.5,96.5C 286.5,127.833 286.5,159.167 286.5,190.5C 255.167,190.5 223.833,190.5 192.5,190.5C 192.5,159.167 192.5,127.833 192.5,96.5 Z"/></g>
<g><path style="opacity:1" fill="#7c7f67" d="M 384.5,96.5 C 415.833,96.5 447.167,96.5 478.5,96.5C 478.5,127.833 478.5,159.167 478.5,190.5C 447.167,190.5 415.833,190.5 384.5,190.5C 384.5,159.167 384.5,127.833 384.5,96.5 Z"/></g>
<g><path style="opacity:1" fill="#7c7f67" d="M 576.5,96.5 C 607.833,96.5 639.167,96.5 670.5,96.5C 670.5,127.833 670.5,159.167 670.5,190.5C 639.167,190.5 607.833,190.5 576.5,190.5C 576.5,159.167 576.5,127.833 576.5,96.5 Z"/></g>
<g><path style="opacity:1" fill="#abb087" d="M -0.5,191.5 C 31.5,191.5 63.5,191.5 95.5,191.5C 95.5,223.5 95.5,255.5 95.5,287.5C 63.5,287.5 31.5,287.5 -0.5,287.5C -0.5,255.5 -0.5,223.5 -0.5,191.5 Z"/></g>
<g><path style="opacity:1" fill="#7e8268" d="M 95.5,191.5 C 127.5,191.5 159.5,191.5 191.5,191.5C 191.5,223.5 191.5,255.5 191.5,287.5C 159.5,287.5 127.5,287.5 95.5,287.5C 95.5,255.5 95.5,223.5 95.5,191.5 Z"/></g>
<g><path style="opacity:1" fill="#aaaf87" d="M 191.5,191.5 C 223.5,191.5 255.5,191.5 287.5,191.5C 287.5,223.5 287.5,255.5 287.5,287.5C 255.5,287.5 223.5,287.5 191.5,287.5C 191.5,255.5 191.5,223.5 191.5,191.5 Z"/></g>
<g><path style="opacity:1" fill="#7e8268" d="M 287.5,191.5 C 319.5,191.5 351.5,191.5 383.5,191.5C 383.5,223.5 383.5,255.5 383.5,287.5C 351.5,287.5 319.5,287.5 287.5,287.5C 287.5,255.5 287.5,223.5 287.5,191.5 Z"/></g>
<g><path style="opacity:1" fill="#aaaf87" d="M 383.5,191.5 C 415.5,191.5 447.5,191.5 479.5,191.5C 479.5,223.5 479.5,255.5 479.5,287.5C 447.5,287.5 415.5,287.5 383.5,287.5C 383.5,255.5 383.5,223.5 383.5,191.5 Z"/></g>
<g><path style="opacity:1" fill="#7e8268" d="M 479.5,191.5 C 511.5,191.5 543.5,191.5 575.5,191.5C 575.5,223.5 575.5,255.5 575.5,287.5C 543.5,287.5 511.5,287.5 479.5,287.5C 479.5,255.5 479.5,223.5 479.5,191.5 Z"/></g>
<g><path style="opacity:1" fill="#aaaf87" d="M 575.5,191.5 C 607.5,191.5 639.5,191.5 671.5,191.5C 671.5,223.5 671.5,255.5 671.5,287.5C 639.5,287.5 607.5,287.5 575.5,287.5C 575.5,255.5 575.5,223.5 575.5,191.5 Z"/></g>
<g><path style="opacity:1" fill="#7f8369" d="M 671.5,191.5 C 703.5,191.5 735.5,191.5 767.5,191.5C 767.5,223.5 767.5,255.5 767.5,287.5C 735.5,287.5 703.5,287.5 671.5,287.5C 671.5,255.5 671.5,223.5 671.5,191.5 Z"/></g>
<g><path style="opacity:1" fill="#7c7f67" d="M 96.5,192.5 C 127.833,192.5 159.167,192.5 190.5,192.5C 190.5,223.833 190.5,255.167 190.5,286.5C 159.167,286.5 127.833,286.5 96.5,286.5C 96.5,255.167 96.5,223.833 96.5,192.5 Z"/></g>
<g><path style="opacity:1" fill="#7c7f67" d="M 288.5,192.5 C 319.833,192.5 351.167,192.5 382.5,192.5C 382.5,223.833 382.5,255.167 382.5,286.5C 351.167,286.5 319.833,286.5 288.5,286.5C 288.5,255.167 288.5,223.833 288.5,192.5 Z"/></g>
<g><path style="opacity:1" fill="#7c7f67" d="M 480.5,192.5 C 511.833,192.5 543.167,192.5 574.5,192.5C 574.5,223.833 574.5,255.167 574.5,286.5C 543.167,286.5 511.833,286.5 480.5,286.5C 480.5,255.167 480.5,223.833 480.5,192.5 Z"/></g>
<g><path style="opacity:1" fill="#7c7f67" d="M 672.5,192.5 C 703.833,192.5 735.167,192.5 766.5,192.5C 766.5,223.833 766.5,255.167 766.5,286.5C 735.167,286.5 703.833,286.5 672.5,286.5C 672.5,255.167 672.5,223.833 672.5,192.5 Z"/></g>
<g><path style="opacity:1" fill="#aaaf87" d="M 95.5,287.5 C 127.5,287.5 159.5,287.5 191.5,287.5C 191.5,319.5 191.5,351.5 191.5,383.5C 159.5,383.5 127.5,383.5 95.5,383.5C 95.5,351.5 95.5,319.5 95.5,287.5 Z"/></g>
<g><path style="opacity:1" fill="#7e8268" d="M 191.5,287.5 C 223.5,287.5 255.5,287.5 287.5,287.5C 287.5,319.5 287.5,351.5 287.5,383.5C 255.5,383.5 223.5,383.5 191.5,383.5C 191.5,351.5 191.5,319.5 191.5,287.5 Z"/></g>
<g><path style="opacity:1" fill="#aaaf87" d="M 287.5,287.5 C 319.5,287.5 351.5,287.5 383.5,287.5C 383.5,319.5 383.5,351.5 383.5,383.5C 351.5,383.5 319.5,383.5 287.5,383.5C 287.5,351.5 287.5,319.5 287.5,287.5 Z"/></g>
<g><path style="opacity:1" fill="#7e8268" d="M 383.5,287.5 C 415.5,287.5 447.5,287.5 479.5,287.5C 479.5,319.5 479.5,351.5 479.5,383.5C 447.5,383.5 415.5,383.5 383.5,383.5C 383.5,351.5 383.5,319.5 383.5,287.5 Z"/></g>
<g><path style="opacity:1" fill="#aaaf87" d="M 479.5,287.5 C 511.5,287.5 543.5,287.5 575.5,287.5C 575.5,319.5 575.5,351.5 575.5,383.5C 543.5,383.5 511.5,383.5 479.5,383.5C 479.5,351.5 479.5,319.5 479.5,287.5 Z"/></g>
<g><path style="opacity:1" fill="#7e8268" d="M 575.5,287.5 C 607.5,287.5 639.5,287.5 671.5,287.5C 671.5,319.5 671.5,351.5 671.5,383.5C 639.5,383.5 607.5,383.5 575.5,383.5C 575.5,351.5 575.5,319.5 575.5,287.5 Z"/></g>
<g><path style="opacity:1" fill="#abb087" d="M 671.5,287.5 C 703.5,287.5 735.5,287.5 767.5,287.5C 767.5,319.5 767.5,351.5 767.5,383.5C 735.5,383.5 703.5,383.5 671.5,383.5C 671.5,351.5 671.5,319.5 671.5,287.5 Z"/></g>
<g><path style="opacity:1" fill="#7d8068" d="M -0.5,287.5 C 31.5,287.5 63.5,287.5 95.5,287.5C 95.5,319.5 95.5,351.5 95.5,383.5C 63.5,383.5 31.5,383.5 -0.5,383.5C -0.5,351.5 -0.5,319.5 -0.5,287.5 Z"/></g>
<g><path style="opacity:1" fill="#7c7f67" d="M 192.5,288.5 C 223.833,288.5 255.167,288.5 286.5,288.5C 286.5,319.833 286.5,351.167 286.5,382.5C 255.167,382.5 223.833,382.5 192.5,382.5C 192.5,351.167 192.5,319.833 192.5,288.5 Z"/></g>
<g><path style="opacity:1" fill="#7c7f67" d="M 384.5,288.5 C 415.833,288.5 447.167,288.5 478.5,288.5C 478.5,319.833 478.5,351.167 478.5,382.5C 447.167,382.5 415.833,382.5 384.5,382.5C 384.5,351.167 384.5,319.833 384.5,288.5 Z"/></g>
<g><path style="opacity:1" fill="#7c7f67" d="M 576.5,288.5 C 607.833,288.5 639.167,288.5 670.5,288.5C 670.5,319.833 670.5,351.167 670.5,382.5C 639.167,382.5 607.833,382.5 576.5,382.5C 576.5,351.167 576.5,319.833 576.5,288.5 Z"/></g>
<g><path style="opacity:1" fill="#abb087" d="M -0.5,383.5 C 31.5,383.5 63.5,383.5 95.5,383.5C 95.5,415.5 95.5,447.5 95.5,479.5C 63.5,479.5 31.5,479.5 -0.5,479.5C -0.5,447.5 -0.5,415.5 -0.5,383.5 Z"/></g>
<g><path style="opacity:1" fill="#7e8268" d="M 95.5,383.5 C 127.5,383.5 159.5,383.5 191.5,383.5C 191.5,415.5 191.5,447.5 191.5,479.5C 159.5,479.5 127.5,479.5 95.5,479.5C 95.5,447.5 95.5,415.5 95.5,383.5 Z"/></g>
<g><path style="opacity:1" fill="#aaaf87" d="M 191.5,383.5 C 223.5,383.5 255.5,383.5 287.5,383.5C 287.5,415.5 287.5,447.5 287.5,479.5C 255.5,479.5 223.5,479.5 191.5,479.5C 191.5,447.5 191.5,415.5 191.5,383.5 Z"/></g>
<g><path style="opacity:1" fill="#7e8268" d="M 287.5,383.5 C 319.5,383.5 351.5,383.5 383.5,383.5C 383.5,415.5 383.5,447.5 383.5,479.5C 351.5,479.5 319.5,479.5 287.5,479.5C 287.5,447.5 287.5,415.5 287.5,383.5 Z"/></g>
<g><path style="opacity:1" fill="#aaaf87" d="M 383.5,383.5 C 415.5,383.5 447.5,383.5 479.5,383.5C 479.5,415.5 479.5,447.5 479.5,479.5C 447.5,479.5 415.5,479.5 383.5,479.5C 383.5,447.5 383.5,415.5 383.5,383.5 Z"/></g>
<g><path style="opacity:1" fill="#7e8268" d="M 479.5,383.5 C 511.5,383.5 543.5,383.5 575.5,383.5C 575.5,415.5 575.5,447.5 575.5,479.5C 543.5,479.5 511.5,479.5 479.5,479.5C 479.5,447.5 479.5,415.5 479.5,383.5 Z"/></g>
<g><path style="opacity:1" fill="#aaaf87" d="M 575.5,383.5 C 607.5,383.5 639.5,383.5 671.5,383.5C 671.5,415.5 671.5,447.5 671.5,479.5C 639.5,479.5 607.5,479.5 575.5,479.5C 575.5,447.5 575.5,415.5 575.5,383.5 Z"/></g>
<g><path style="opacity:1" fill="#7f8369" d="M 671.5,383.5 C 703.5,383.5 735.5,383.5 767.5,383.5C 767.5,415.5 767.5,447.5 767.5,479.5C 735.5,479.5 703.5,479.5 671.5,479.5C 671.5,447.5 671.5,415.5 671.5,383.5 Z"/></g>
<g><path style="opacity:1" fill="#7c7f67" d="M 96.5,384.5 C 127.833,384.5 159.167,384.5 190.5,384.5C 190.5,415.833 190.5,447.167 190.5,478.5C 159.167,478.5 127.833,478.5 96.5,478.5C 96.5,447.167 96.5,415.833 96.5,384.5 Z"/></g>
<g><path style="opacity:1" fill="#7c7f67" d="M 288.5,384.5 C 319.833,384.5 351.167,384.5 382.5,384.5C 382.5,415.833 382.5,447.167 382.5,478.5C 351.167,478.5 319.833,478.5 288.5,478.5C 288.5,447.167 288.5,415.833 288.5,384.5 Z"/></g>
<g><path style="opacity:1" fill="#7c7f67" d="M 480.5,384.5 C 511.833,384.5 543.167,384.5 574.5,384.5C 574.5,415.833 574.5,447.167 574.5,478.5C 543.167,478.5 511.833,478.5 480.5,478.5C 480.5,447.167 480.5,415.833 480.5,384.5 Z"/></g>
<g><path style="opacity:1" fill="#7c7f67" d="M 672.5,384.5 C 703.833,384.5 735.167,384.5 766.5,384.5C 766.5,415.833 766.5,447.167 766.5,478.5C 735.167,478.5 703.833,478.5 672.5,478.5C 672.5,447.167 672.5,415.833 672.5,384.5 Z"/></g>
<g><path style="opacity:1" fill="#aaaf87" d="M 95.5,479.5 C 127.5,479.5 159.5,479.5 191.5,479.5C 191.5,511.5 191.5,543.5 191.5,575.5C 159.5,575.5 127.5,575.5 95.5,575.5C 95.5,543.5 95.5,511.5 95.5,479.5 Z"/></g>
<g><path style="opacity:1" fill="#7e8268" d="M 191.5,479.5 C 223.5,479.5 255.5,479.5 287.5,479.5C 287.5,511.5 287.5,543.5 287.5,575.5C 255.5,575.5 223.5,575.5 191.5,575.5C 191.5,543.5 191.5,511.5 191.5,479.5 Z"/></g>
<g><path style="opacity:1" fill="#aaaf87" d="M 287.5,479.5 C 319.5,479.5 351.5,479.5 383.5,479.5C 383.5,511.5 383.5,543.5 383.5,575.5C 351.5,575.5 319.5,575.5 287.5,575.5C 287.5,543.5 287.5,511.5 287.5,479.5 Z"/></g>
<g><path style="opacity:1" fill="#7e8268" d="M 383.5,479.5 C 415.5,479.5 447.5,479.5 479.5,479.5C 479.5,511.5 479.5,543.5 479.5,575.5C 447.5,575.5 415.5,575.5 383.5,575.5C 383.5,543.5 383.5,511.5 383.5,479.5 Z"/></g>
<g><path style="opacity:1" fill="#aaaf87" d="M 479.5,479.5 C 511.5,479.5 543.5,479.5 575.5,479.5C 575.5,511.5 575.5,543.5 575.5,575.5C 543.5,575.5 511.5,575.5 479.5,575.5C 479.5,543.5 479.5,511.5 479.5,479.5 Z"/></g>
<g><path style="opacity:1" fill="#7e8268" d="M 575.5,479.5 C 607.5,479.5 639.5,479.5 671.5,479.5C 671.5,511.5 671.5,543.5 671.5,575.5C 639.5,575.5 607.5,575.5 575.5,575.5C 575.5,543.5 575.5,511.5 575.5,479.5 Z"/></g>
<g><path style="opacity:1" fill="#abb087" d="M 671.5,479.5 C 703.5,479.5 735.5,479.5 767.5,479.5C 767.5,511.5 767.5,543.5 767.5,575.5C 735.5,575.5 703.5,575.5 671.5,575.5C 671.5,543.5 671.5,511.5 671.5,479.5 Z"/></g>
<g><path style="opacity:1" fill="#7d8068" d="M -0.5,479.5 C 31.5,479.5 63.5,479.5 95.5,479.5C 95.5,511.5 95.5,543.5 95.5,575.5C 63.5,575.5 31.5,575.5 -0.5,575.5C -0.5,543.5 -0.5,511.5 -0.5,479.5 Z"/></g>
<g><path style="opacity:1" fill="#7c7f67" d="M 192.5,480.5 C 223.833,480.5 255.167,480.5 286.5,480.5C 286.5,511.833 286.5,543.167 286.5,574.5C 255.167,574.5 223.833,574.5 192.5,574.5C 192.5,543.167 192.5,511.833 192.5,480.5 Z"/></g>
<g><path style="opacity:1" fill="#7c7f67" d="M 384.5,480.5 C 415.833,480.5 447.167,480.5 478.5,480.5C 478.5,511.833 478.5,543.167 478.5,574.5C 447.167,574.5 415.833,574.5 384.5,574.5C 384.5,543.167 384.5,511.833 384.5,480.5 Z"/></g>
<g><path style="opacity:1" fill="#7c7f67" d="M 576.5,480.5 C 607.833,480.5 639.167,480.5 670.5,480.5C 670.5,511.833 670.5,543.167 670.5,574.5C 639.167,574.5 607.833,574.5 576.5,574.5C 576.5,543.167 576.5,511.833 576.5,480.5 Z"/></g>
<g><path style="opacity:1" fill="#abb087" d="M -0.5,575.5 C 31.5,575.5 63.5,575.5 95.5,575.5C 95.5,607.5 95.5,639.5 95.5,671.5C 63.5,671.5 31.5,671.5 -0.5,671.5C -0.5,639.5 -0.5,607.5 -0.5,575.5 Z"/></g>
<g><path style="opacity:1" fill="#7e8268" d="M 95.5,575.5 C 127.5,575.5 159.5,575.5 191.5,575.5C 191.5,607.5 191.5,639.5 191.5,671.5C 159.5,671.5 127.5,671.5 95.5,671.5C 95.5,639.5 95.5,607.5 95.5,575.5 Z"/></g>
<g><path style="opacity:1" fill="#aaaf87" d="M 191.5,575.5 C 223.5,575.5 255.5,575.5 287.5,575.5C 287.5,607.5 287.5,639.5 287.5,671.5C 255.5,671.5 223.5,671.5 191.5,671.5C 191.5,639.5 191.5,607.5 191.5,575.5 Z"/></g>
<g><path style="opacity:1" fill="#7e8268" d="M 287.5,575.5 C 319.5,575.5 351.5,575.5 383.5,575.5C 383.5,607.5 383.5,639.5 383.5,671.5C 351.5,671.5 319.5,671.5 287.5,671.5C 287.5,639.5 287.5,607.5 287.5,575.5 Z"/></g>
<g><path style="opacity:1" fill="#aaaf87" d="M 383.5,575.5 C 415.5,575.5 447.5,575.5 479.5,575.5C 479.5,607.5 479.5,639.5 479.5,671.5C 447.5,671.5 415.5,671.5 383.5,671.5C 383.5,639.5 383.5,607.5 383.5,575.5 Z"/></g>
<g><path style="opacity:1" fill="#7e8268" d="M 479.5,575.5 C 511.5,575.5 543.5,575.5 575.5,575.5C 575.5,607.5 575.5,639.5 575.5,671.5C 543.5,671.5 511.5,671.5 479.5,671.5C 479.5,639.5 479.5,607.5 479.5,575.5 Z"/></g>
<g><path style="opacity:1" fill="#aaaf87" d="M 575.5,575.5 C 607.5,575.5 639.5,575.5 671.5,575.5C 671.5,607.5 671.5,639.5 671.5,671.5C 639.5,671.5 607.5,671.5 575.5,671.5C 575.5,639.5 575.5,607.5 575.5,575.5 Z"/></g>
<g><path style="opacity:1" fill="#7f8369" d="M 671.5,575.5 C 703.5,575.5 735.5,575.5 767.5,575.5C 767.5,607.5 767.5,639.5 767.5,671.5C 735.5,671.5 703.5,671.5 671.5,671.5C 671.5,639.5 671.5,607.5 671.5,575.5 Z"/></g>
<g><path style="opacity:1" fill="#7c7f67" d="M 96.5,576.5 C 127.833,576.5 159.167,576.5 190.5,576.5C 190.5,607.833 190.5,639.167 190.5,670.5C 159.167,670.5 127.833,670.5 96.5,670.5C 96.5,639.167 96.5,607.833 96.5,576.5 Z"/></g>
<g><path style="opacity:1" fill="#7c7f67" d="M 288.5,576.5 C 319.833,576.5 351.167,576.5 382.5,576.5C 382.5,607.833 382.5,639.167 382.5,670.5C 351.167,670.5 319.833,670.5 288.5,670.5C 288.5,639.167 288.5,607.833 288.5,576.5 Z"/></g>
<g><path style="opacity:1" fill="#7c7f67" d="M 480.5,576.5 C 511.833,576.5 543.167,576.5 574.5,576.5C 574.5,607.833 574.5,639.167 574.5,670.5C 543.167,670.5 511.833,670.5 480.5,670.5C 480.5,639.167 480.5,607.833 480.5,576.5 Z"/></g>
<g><path style="opacity:1" fill="#7c7f67" d="M 672.5,576.5 C 703.833,576.5 735.167,576.5 766.5,576.5C 766.5,607.833 766.5,639.167 766.5,670.5C 735.167,670.5 703.833,670.5 672.5,670.5C 672.5,639.167 672.5,607.833 672.5,576.5 Z"/></g>
<g><path style="opacity:1" fill="#abb087" d="M 95.5,671.5 C 127.5,671.5 159.5,671.5 191.5,671.5C 191.5,703.5 191.5,735.5 191.5,767.5C 159.5,767.5 127.5,767.5 95.5,767.5C 95.5,735.5 95.5,703.5 95.5,671.5 Z"/></g>
<g><path style="opacity:1" fill="#abb087" d="M 287.5,671.5 C 319.5,671.5 351.5,671.5 383.5,671.5C 383.5,703.5 383.5,735.5 383.5,767.5C 351.5,767.5 319.5,767.5 287.5,767.5C 287.5,735.5 287.5,703.5 287.5,671.5 Z"/></g>
<g><path style="opacity:1" fill="#abb087" d="M 479.5,671.5 C 511.5,671.5 543.5,671.5 575.5,671.5C 575.5,703.5 575.5,735.5 575.5,767.5C 543.5,767.5 511.5,767.5 479.5,767.5C 479.5,735.5 479.5,703.5 479.5,671.5 Z"/></g>
<g><path style="opacity:1" fill="#abb087" d="M 671.5,671.5 C 703.5,671.5 735.5,671.5 767.5,671.5C 767.5,703.5 767.5,735.5 767.5,767.5C 735.5,767.5 703.5,767.5 671.5,767.5C 671.5,735.5 671.5,703.5 671.5,671.5 Z"/></g>
<g><path style="opacity:1" fill="#80836a" d="M -0.5,671.5 C 31.5,671.5 63.5,671.5 95.5,671.5C 95.5,703.5 95.5,735.5 95.5,767.5C 64.1667,767.5 32.8333,767.5 1.5,767.5C 32.3288,766.502 63.3288,766.169 94.5,766.5C 94.5,735.167 94.5,703.833 94.5,672.5C 63.1667,672.5 31.8333,672.5 0.5,672.5C 0.831498,703.671 0.498164,734.671 -0.5,765.5C -0.5,734.167 -0.5,702.833 -0.5,671.5 Z"/></g>
<g><path style="opacity:1" fill="#7f8369" d="M 191.5,671.5 C 223.5,671.5 255.5,671.5 287.5,671.5C 287.5,703.5 287.5,735.5 287.5,767.5C 255.5,767.5 223.5,767.5 191.5,767.5C 191.5,735.5 191.5,703.5 191.5,671.5 Z"/></g>
<g><path style="opacity:1" fill="#7f8369" d="M 383.5,671.5 C 415.5,671.5 447.5,671.5 479.5,671.5C 479.5,703.5 479.5,735.5 479.5,767.5C 450.833,767.5 422.167,767.5 393.5,767.5C 421.662,766.502 449.995,766.169 478.5,766.5C 478.5,735.167 478.5,703.833 478.5,672.5C 447.167,672.5 415.833,672.5 384.5,672.5C 384.5,703.833 384.5,735.167 384.5,766.5C 387.385,766.194 390.052,766.527 392.5,767.5C 389.5,767.5 386.5,767.5 383.5,767.5C 383.5,735.5 383.5,703.5 383.5,671.5 Z"/></g>
<g><path style="opacity:1" fill="#7f8369" d="M 575.5,671.5 C 607.5,671.5 639.5,671.5 671.5,671.5C 671.5,703.5 671.5,735.5 671.5,767.5C 639.5,767.5 607.5,767.5 575.5,767.5C 575.5,735.5 575.5,703.5 575.5,671.5 Z"/></g>
<g><path style="opacity:1" fill="#7c7f67" d="M 1.5,767.5 C 0.833333,767.5 0.166667,767.5 -0.5,767.5C -0.5,766.833 -0.5,766.167 -0.5,765.5C 0.498164,734.671 0.831498,703.671 0.5,672.5C 31.8333,672.5 63.1667,672.5 94.5,672.5C 94.5,703.833 94.5,735.167 94.5,766.5C 63.3288,766.169 32.3288,766.502 1.5,767.5 Z"/></g>
<g><path style="opacity:1" fill="#7c7f67" d="M 192.5,672.5 C 223.833,672.5 255.167,672.5 286.5,672.5C 286.5,703.833 286.5,735.167 286.5,766.5C 255.167,766.5 223.833,766.5 192.5,766.5C 192.5,735.167 192.5,703.833 192.5,672.5 Z"/></g>
<g><path style="opacity:1" fill="#7c7f67" d="M 393.5,767.5 C 393.167,767.5 392.833,767.5 392.5,767.5C 390.052,766.527 387.385,766.194 384.5,766.5C 384.5,735.167 384.5,703.833 384.5,672.5C 415.833,672.5 447.167,672.5 478.5,672.5C 478.5,703.833 478.5,735.167 478.5,766.5C 449.995,766.169 421.662,766.502 393.5,767.5 Z"/></g>
<g><path style="opacity:1" fill="#7c7f67" d="M 576.5,672.5 C 607.833,672.5 639.167,672.5 670.5,672.5C 670.5,703.833 670.5,735.167 670.5,766.5C 639.167,766.5 607.833,766.5 576.5,766.5C 576.5,735.167 576.5,703.833 576.5,672.5 Z"/></g>
</svg>
