<?xml version="1.0" encoding="UTF-8"?>
<!DOCTYPE svg PUBLIC "-//W3C//DTD SVG 1.1//EN" "http://www.w3.org/Graphics/SVG/1.1/DTD/svg11.dtd">
<svg xmlns="http://www.w3.org/2000/svg" version="1.1" width="600px" height="600px" style="shape-rendering:geometricPrecision; text-rendering:geometricPrecision; image-rendering:optimizeQuality; fill-rule:evenodd; clip-rule:evenodd" xmlns:xlink="http://www.w3.org/1999/xlink">
<g><path style="opacity:1" fill="#cbd7e9" d="M -0.5,-0.5 C 24.1667,-0.5 48.8333,-0.5 73.5,-0.5C 73.6666,23.8356 73.5,48.1689 73,72.5C 71.6976,73.0848 70.531,73.7515 69.5,74.5C 46.1667,74.5 22.8333,74.5 -0.5,74.5C -0.5,49.5 -0.5,24.5 -0.5,-0.5 Z"/></g>
<g><path style="opacity:1" fill="#c9d7f0" d="M 73.5,-0.5 C 73.8333,-0.5 74.1667,-0.5 74.5,-0.5C 74.5,24.5 74.5,49.5 74.5,74.5C 72.8333,74.5 71.1667,74.5 69.5,74.5C 70.531,73.7515 71.6976,73.0848 73,72.5C 73.5,48.1689 73.6666,23.8356 73.5,-0.5 Z"/></g>
<g><path style="opacity:1" fill="#afc0db" d="M 74.5,-0.5 C 74.8333,-0.5 75.1667,-0.5 75.5,-0.5C 75.3334,23.5023 75.5,47.5023 76,71.5C 76.6979,72.6906 77.5313,73.6906 78.5,74.5C 77.1667,74.5 75.8333,74.5 74.5,74.5C 74.5,49.5 74.5,24.5 74.5,-0.5 Z"/></g>
<g><path style="opacity:1" fill="#adbfde" d="M 75.5,-0.5 C 100.167,-0.5 124.833,-0.5 149.5,-0.5C 149.5,24.5 149.5,49.5 149.5,74.5C 125.833,74.5 102.167,74.5 78.5,74.5C 77.5313,73.6906 76.6979,72.6906 76,71.5C 75.5,47.5023 75.3334,23.5023 75.5,-0.5 Z"/></g>
<g><path style="opacity:1" fill="#cbd7ea" d="M 149.5,-0.5 C 174.5,-0.5 199.5,-0.5 224.5,-0.5C 224.5,24.5 224.5,49.5 224.5,74.5C 199.5,74.5 174.5,74.5 149.5,74.5C 149.5,49.5 149.5,24.5 149.5,-0.5 Z"/></g>
<g><path style="opacity:1" fill="#aebdda" d="M 224.5,-0.5 C 225.167,-0.5 225.833,-0.5 226.5,-0.5C 226.186,24.5447 226.519,49.5447 227.5,74.5C 226.5,74.5 225.5,74.5 224.5,74.5C 224.5,49.5 224.5,24.5 224.5,-0.5 Z"/></g>
<g><path style="opacity:1" fill="#adbede" d="M 226.5,-0.5 C 250.833,-0.5 275.167,-0.5 299.5,-0.5C 299.5,24.5 299.5,49.5 299.5,74.5C 275.5,74.5 251.5,74.5 227.5,74.5C 226.519,49.5447 226.186,24.5447 226.5,-0.5 Z"/></g>
<g><path style="opacity:1" fill="#cbd7e9" d="M 299.5,-0.5 C 324.167,-0.5 348.833,-0.5 373.5,-0.5C 373.467,24.6785 373.467,49.6785 373.5,74.5C 372.833,74.5 372.167,74.5 371.5,74.5C 347.5,74.5 323.5,74.5 299.5,74.5C 299.5,49.5 299.5,24.5 299.5,-0.5 Z"/></g>
<g><path style="opacity:1" fill="#c9d8ee" d="M 373.5,-0.5 C 373.833,-0.5 374.167,-0.5 374.5,-0.5C 374.5,24.5 374.5,49.5 374.5,74.5C 374.167,74.5 373.833,74.5 373.5,74.5C 373.467,49.6785 373.467,24.6785 373.5,-0.5 Z"/></g>
<g><path style="opacity:1" fill="#afc0da" d="M 374.5,-0.5 C 374.833,-0.5 375.167,-0.5 375.5,-0.5C 375.186,24.5447 375.519,49.5447 376.5,74.5C 375.833,74.5 375.167,74.5 374.5,74.5C 374.5,49.5 374.5,24.5 374.5,-0.5 Z"/></g>
<g><path style="opacity:1" fill="#adbede" d="M 375.5,-0.5 C 400.167,-0.5 424.833,-0.5 449.5,-0.5C 449.5,24.5 449.5,49.5 449.5,74.5C 425.5,74.5 401.5,74.5 377.5,74.5C 377.167,74.5 376.833,74.5 376.5,74.5C 375.519,49.5447 375.186,24.5447 375.5,-0.5 Z"/></g>
<g><path style="opacity:1" fill="#cbd7e9" d="M 449.5,-0.5 C 474.5,-0.5 499.5,-0.5 524.5,-0.5C 524.5,24.5 524.5,49.5 524.5,74.5C 523.167,74.5 521.833,74.5 520.5,74.5C 496.833,74.5 473.167,74.5 449.5,74.5C 449.5,49.5 449.5,24.5 449.5,-0.5 Z"/></g>
<g><path style="opacity:1" fill="#b0bfd9" d="M 524.5,-0.5 C 524.833,-0.5 525.167,-0.5 525.5,-0.5C 524.874,24.6597 525.541,49.6597 527.5,74.5C 526.5,74.5 525.5,74.5 524.5,74.5C 524.5,49.5 524.5,24.5 524.5,-0.5 Z"/></g>
<g><path style="opacity:1" fill="#adbfde" d="M 525.5,-0.5 C 550.167,-0.5 574.833,-0.5 599.5,-0.5C 599.5,24.5 599.5,49.5 599.5,74.5C 575.5,74.5 551.5,74.5 527.5,74.5C 525.541,49.6597 524.874,24.6597 525.5,-0.5 Z"/></g>
<g><path style="opacity:1" fill="#adbede" d="M -0.5,74.5 C 22.8333,74.5 46.1667,74.5 69.5,74.5C 70.5676,75.4345 71.901,75.7678 73.5,75.5C 73.6666,98.8357 73.5,122.169 73,145.5C 72.0793,146.708 71.5793,148.042 71.5,149.5C 71.1667,149.5 70.8333,149.5 70.5,149.5C 46.8333,149.5 23.1667,149.5 -0.5,149.5C -0.5,124.5 -0.5,99.5 -0.5,74.5 Z"/></g>
<g><path style="opacity:1" fill="#cbd7e9" d="M 74.5,74.5 C 75.8333,74.5 77.1667,74.5 78.5,74.5C 102.167,74.5 125.833,74.5 149.5,74.5C 149.5,99.5 149.5,124.5 149.5,149.5C 148.833,149.5 148.167,149.5 147.5,149.5C 123.833,149.5 100.167,149.5 76.5,149.5C 76.1667,149.5 75.8333,149.5 75.5,149.5C 76.6843,148.312 76.6843,147.145 75.5,146C 76.1667,145.667 76.8333,145.333 77.5,145C 76.8333,123 76.1667,101 75.5,79C 78.0515,77.4842 77.7181,76.6509 74.5,76.5C 74.5,75.8333 74.5,75.1667 74.5,74.5 Z"/></g>
<g><path style="opacity:1" fill="#adbede" d="M 149.5,74.5 C 174.5,74.5 199.5,74.5 224.5,74.5C 224.5,99.5 224.5,124.5 224.5,149.5C 199.5,149.5 174.5,149.5 149.5,149.5C 149.5,124.5 149.5,99.5 149.5,74.5 Z"/></g>
<g><path style="opacity:1" fill="#cbd7ea" d="M 224.5,74.5 C 225.5,74.5 226.5,74.5 227.5,74.5C 251.5,74.5 275.5,74.5 299.5,74.5C 299.5,99.5 299.5,124.5 299.5,149.5C 274.5,149.5 249.5,149.5 224.5,149.5C 224.5,124.5 224.5,99.5 224.5,74.5 Z"/></g>
<g><path style="opacity:1" fill="#cbd7ea" d="M 377.5,74.5 C 401.5,74.5 425.5,74.5 449.5,74.5C 449.5,99.5 449.5,124.5 449.5,149.5C 425.5,149.5 401.5,149.5 377.5,149.5C 377.013,148.527 376.513,147.527 376,146.5C 375.833,135.167 375.667,123.833 375.5,112.5C 375.854,100.46 375.854,88.6263 375.5,77C 376.756,76.5831 377.423,75.7498 377.5,74.5 Z"/></g>
<g><path style="opacity:1" fill="#cbd7ea" d="M 524.5,74.5 C 525.5,74.5 526.5,74.5 527.5,74.5C 551.5,74.5 575.5,74.5 599.5,74.5C 599.5,99.5 599.5,124.5 599.5,149.5C 575.5,149.5 551.5,149.5 527.5,149.5C 526.5,149.5 525.5,149.5 524.5,149.5C 524.5,124.5 524.5,99.5 524.5,74.5 Z"/></g>
<g><path style="opacity:1" fill="#adbede" d="M 299.5,74.5 C 323.5,74.5 347.5,74.5 371.5,74.5C 373.411,99.0265 374.078,124.027 373.5,149.5C 373.167,149.5 372.833,149.5 372.5,149.5C 348.167,149.5 323.833,149.5 299.5,149.5C 299.5,124.5 299.5,99.5 299.5,74.5 Z"/></g>
<g><path style="opacity:1" fill="#adbede" d="M 449.5,74.5 C 473.167,74.5 496.833,74.5 520.5,74.5C 521.504,75.6828 522.338,77.0161 523,78.5C 523.667,100.5 523.667,122.5 523,144.5C 521.731,145.905 521.231,147.571 521.5,149.5C 497.5,149.5 473.5,149.5 449.5,149.5C 449.5,124.5 449.5,99.5 449.5,74.5 Z"/></g>
<g><path style="opacity:1" fill="#c8d8ef" d="M 74.5,76.5 C 77.7181,76.6509 78.0515,77.4842 75.5,79C 76.1667,101 76.8333,123 77.5,145C 76.8333,145.333 76.1667,145.667 75.5,146C 76.6843,147.145 76.6843,148.312 75.5,149.5C 75.1667,149.5 74.8333,149.5 74.5,149.5C 74.5,125.167 74.5,100.833 74.5,76.5 Z"/></g>
<g><path style="opacity:1" fill="#aec0d9" d="M 371.5,74.5 C 372.167,74.5 372.833,74.5 373.5,74.5C 373.833,74.5 374.167,74.5 374.5,74.5C 374.5,99.5 374.5,124.5 374.5,149.5C 374.167,149.5 373.833,149.5 373.5,149.5C 374.078,124.027 373.411,99.0265 371.5,74.5 Z"/></g>
<g><path style="opacity:1" fill="#b0c0da" d="M 520.5,74.5 C 521.833,74.5 523.167,74.5 524.5,74.5C 524.5,99.5 524.5,124.5 524.5,149.5C 523.5,149.5 522.5,149.5 521.5,149.5C 521.231,147.571 521.731,145.905 523,144.5C 523.667,122.5 523.667,100.5 523,78.5C 522.338,77.0161 521.504,75.6828 520.5,74.5 Z"/></g>
<g><path style="opacity:1" fill="#aec0d9" d="M 69.5,74.5 C 71.1667,74.5 72.8333,74.5 74.5,74.5C 74.5,75.1667 74.5,75.8333 74.5,76.5C 74.5,100.833 74.5,125.167 74.5,149.5C 73.5,149.5 72.5,149.5 71.5,149.5C 71.5793,148.042 72.0793,146.708 73,145.5C 73.5,122.169 73.6666,98.8357 73.5,75.5C 71.901,75.7678 70.5676,75.4345 69.5,74.5 Z"/></g>
<g><path style="opacity:1" fill="#c8d8ef" d="M 374.5,74.5 C 375.167,74.5 375.833,74.5 376.5,74.5C 376.833,74.5 377.167,74.5 377.5,74.5C 377.423,75.7498 376.756,76.5831 375.5,77C 375.854,88.6263 375.854,100.46 375.5,112.5C 375.667,123.833 375.833,135.167 376,146.5C 376.513,147.527 377.013,148.527 377.5,149.5C 376.5,149.5 375.5,149.5 374.5,149.5C 374.5,124.5 374.5,99.5 374.5,74.5 Z"/></g>
<g><path style="opacity:1" fill="#afbcdc" d="M 453.5,79.5 C 454.172,100.902 454.839,122.402 455.5,144C 455,144.5 454.5,145 454,145.5C 453.5,123.503 453.333,101.503 453.5,79.5 Z"/></g>
<g><path style="opacity:1" fill="#cbd7e9" d="M -0.5,149.5 C 23.1667,149.5 46.8333,149.5 70.5,149.5C 71.172,150.267 72.0053,150.934 73,151.5C 73.5,175.498 73.6666,199.498 73.5,223.5C 72.209,223.263 71.209,223.596 70.5,224.5C 46.8333,224.5 23.1667,224.5 -0.5,224.5C -0.5,199.5 -0.5,174.5 -0.5,149.5 Z"/></g>
<g><path style="opacity:1" fill="#adbfde" d="M 76.5,149.5 C 100.167,149.5 123.833,149.5 147.5,149.5C 148.481,174.122 148.814,198.789 148.5,223.5C 146.901,223.232 145.568,223.566 144.5,224.5C 121.5,224.5 98.5,224.5 75.5,224.5C 75.1856,199.455 75.5189,174.455 76.5,149.5 Z"/></g>
<g><path style="opacity:1" fill="#cad7ea" d="M 149.5,149.5 C 174.5,149.5 199.5,149.5 224.5,149.5C 224.5,149.833 224.5,150.167 224.5,150.5C 224.5,174.833 224.5,199.167 224.5,223.5C 224.5,223.833 224.5,224.167 224.5,224.5C 224.167,224.5 223.833,224.5 223.5,224.5C 198.833,224.5 174.167,224.5 149.5,224.5C 149.5,199.5 149.5,174.5 149.5,149.5 Z"/></g>
<g><path style="opacity:1" fill="#adbede" d="M 224.5,150.5 C 224.5,150.167 224.5,149.833 224.5,149.5C 249.5,149.5 274.5,149.5 299.5,149.5C 299.5,174.5 299.5,199.5 299.5,224.5C 274.5,224.5 249.5,224.5 224.5,224.5C 224.5,224.167 224.5,223.833 224.5,223.5C 225.832,211.686 226.499,199.519 226.5,187C 226.499,174.481 225.832,162.314 224.5,150.5 Z"/></g>
<g><path style="opacity:1" fill="#cbd7e9" d="M 299.5,149.5 C 323.833,149.5 348.167,149.5 372.5,149.5C 373.833,174.5 373.833,199.5 372.5,224.5C 371.833,224.5 371.167,224.5 370.5,224.5C 346.833,224.5 323.167,224.5 299.5,224.5C 299.5,199.5 299.5,174.5 299.5,149.5 Z"/></g>
<g><path style="opacity:1" fill="#afc1da" d="M 374.5,149.5 C 375.5,149.5 376.5,149.5 377.5,149.5C 377.217,150.289 376.717,150.956 376,151.5C 375.5,175.498 375.333,199.498 375.5,223.5C 377.099,223.232 378.432,223.566 379.5,224.5C 378.833,224.5 378.167,224.5 377.5,224.5C 376.5,224.5 375.5,224.5 374.5,224.5C 374.5,199.5 374.5,174.5 374.5,149.5 Z"/></g>
<g><path style="opacity:1" fill="#adbede" d="M 377.5,149.5 C 401.5,149.5 425.5,149.5 449.5,149.5C 449.5,174.5 449.5,199.5 449.5,224.5C 426.167,224.5 402.833,224.5 379.5,224.5C 378.432,223.566 377.099,223.232 375.5,223.5C 375.333,199.498 375.5,175.498 376,151.5C 376.717,150.956 377.217,150.289 377.5,149.5 Z"/></g>
<g><path style="opacity:1" fill="#cbd7ea" d="M 449.5,149.5 C 473.5,149.5 497.5,149.5 521.5,149.5C 522.5,149.5 523.5,149.5 524.5,149.5C 524.5,174.5 524.5,199.5 524.5,224.5C 499.5,224.5 474.5,224.5 449.5,224.5C 449.5,199.5 449.5,174.5 449.5,149.5 Z"/></g>
<g><path style="opacity:1" fill="#aebfde" d="M 527.5,149.5 C 551.5,149.5 575.5,149.5 599.5,149.5C 599.5,174.5 599.5,199.5 599.5,224.5C 575.5,224.5 551.5,224.5 527.5,224.5C 526.186,212.39 525.52,200.057 525.5,187.5C 525.667,175.5 525.833,163.5 526,151.5C 526.717,150.956 527.217,150.289 527.5,149.5 Z"/></g>
<g><path style="opacity:1" fill="#c9d7f0" d="M 70.5,149.5 C 70.8333,149.5 71.1667,149.5 71.5,149.5C 72.5,149.5 73.5,149.5 74.5,149.5C 74.5,174.5 74.5,199.5 74.5,224.5C 73.5,224.5 72.5,224.5 71.5,224.5C 71.1667,224.5 70.8333,224.5 70.5,224.5C 71.209,223.596 72.209,223.263 73.5,223.5C 73.6666,199.498 73.5,175.498 73,151.5C 72.0053,150.934 71.172,150.267 70.5,149.5 Z"/></g>
<g><path style="opacity:1" fill="#c9d8ee" d="M 372.5,149.5 C 372.833,149.5 373.167,149.5 373.5,149.5C 373.833,149.5 374.167,149.5 374.5,149.5C 374.5,174.5 374.5,199.5 374.5,224.5C 373.833,224.5 373.167,224.5 372.5,224.5C 373.833,199.5 373.833,174.5 372.5,149.5 Z"/></g>
<g><path style="opacity:1" fill="#afc0db" d="M 74.5,149.5 C 74.8333,149.5 75.1667,149.5 75.5,149.5C 75.8333,149.5 76.1667,149.5 76.5,149.5C 75.5189,174.455 75.1856,199.455 75.5,224.5C 75.1667,224.5 74.8333,224.5 74.5,224.5C 74.5,199.5 74.5,174.5 74.5,149.5 Z"/></g>
<g><path style="opacity:1" fill="#afc0dd" d="M 147.5,149.5 C 148.167,149.5 148.833,149.5 149.5,149.5C 149.5,174.5 149.5,199.5 149.5,224.5C 147.833,224.5 146.167,224.5 144.5,224.5C 145.568,223.566 146.901,223.232 148.5,223.5C 148.814,198.789 148.481,174.122 147.5,149.5 Z"/></g>
<g><path style="opacity:1" fill="#afbdda" d="M 224.5,150.5 C 225.832,162.314 226.499,174.481 226.5,187C 226.499,199.519 225.832,211.686 224.5,223.5C 224.5,199.167 224.5,174.833 224.5,150.5 Z"/></g>
<g><path style="opacity:1" fill="#afbed8" d="M 524.5,149.5 C 525.5,149.5 526.5,149.5 527.5,149.5C 527.217,150.289 526.717,150.956 526,151.5C 525.833,163.5 525.667,175.5 525.5,187.5C 525.52,200.057 526.186,212.39 527.5,224.5C 526.5,224.5 525.5,224.5 524.5,224.5C 524.5,199.5 524.5,174.5 524.5,149.5 Z"/></g>
<g><path style="opacity:1" fill="#adbfde" d="M -0.5,224.5 C 23.1667,224.5 46.8333,224.5 70.5,224.5C 70.8333,224.5 71.1667,224.5 71.5,224.5C 72.355,225.531 73.0217,226.697 73.5,228C 73.1359,239.502 73.1359,251.168 73.5,263C 73.4884,274.226 72.8217,285.226 71.5,296C 71.9574,296.414 72.2907,296.914 72.5,297.5C 71.7573,298.182 71.0906,298.849 70.5,299.5C 46.8333,299.5 23.1667,299.5 -0.5,299.5C -0.5,274.5 -0.5,249.5 -0.5,224.5 Z"/></g>
<g><path style="opacity:1" fill="#cbd7e9" d="M 74.5,224.5 C 74.8333,224.5 75.1667,224.5 75.5,224.5C 98.5,224.5 121.5,224.5 144.5,224.5C 146.167,224.5 147.833,224.5 149.5,224.5C 149.5,249.5 149.5,274.5 149.5,299.5C 124.5,299.5 99.5,299.5 74.5,299.5C 74.5,299.167 74.5,298.833 74.5,298.5C 75.3764,298.631 76.0431,298.298 76.5,297.5C 76.817,274.633 76.4837,251.633 75.5,228.5C 79.374,226.998 79.0407,226.331 74.5,226.5C 74.5,225.833 74.5,225.167 74.5,224.5 Z"/></g>
<g><path style="opacity:1" fill="#adbfde" d="M 149.5,224.5 C 174.167,224.5 198.833,224.5 223.5,224.5C 223.427,249.347 223.427,274.347 223.5,299.5C 198.833,299.5 174.167,299.5 149.5,299.5C 149.5,274.5 149.5,249.5 149.5,224.5 Z"/></g>
<g><path style="opacity:1" fill="#cad7ea" d="M 224.5,224.5 C 249.5,224.5 274.5,224.5 299.5,224.5C 299.5,225.833 299.5,227.167 299.5,228.5C 299.5,229.167 299.5,229.833 299.5,230.5C 299.5,253.5 299.5,276.5 299.5,299.5C 274.5,299.5 249.5,299.5 224.5,299.5C 224.5,274.5 224.5,249.5 224.5,224.5 Z"/></g>
<g><path style="opacity:1" fill="#adbfde" d="M 299.5,224.5 C 323.167,224.5 346.833,224.5 370.5,224.5C 370.883,226.408 371.883,227.908 373.5,229C 372.692,229.308 372.025,229.808 371.5,230.5C 371.846,231.696 372.346,231.696 373,230.5C 373.667,252.167 373.667,273.833 373,295.5C 372.626,296.416 372.126,297.25 371.5,298C 372.416,298.278 373.082,298.778 373.5,299.5C 373.167,299.5 372.833,299.5 372.5,299.5C 348.167,299.5 323.833,299.5 299.5,299.5C 299.5,276.5 299.5,253.5 299.5,230.5C 300.496,230.414 301.329,230.748 302,231.5C 302.827,253.406 302.66,275.24 301.5,297C 301.833,297.167 302.167,297.333 302.5,297.5C 303.666,275.174 303.833,252.841 303,230.5C 302.667,229.833 302.333,229.167 302,228.5C 301.23,229.598 300.397,229.598 299.5,228.5C 299.5,227.167 299.5,225.833 299.5,224.5 Z"/></g>
<g><path style="opacity:1" fill="#cbd7ea" d="M 377.5,224.5 C 378.167,224.5 378.833,224.5 379.5,224.5C 402.833,224.5 426.167,224.5 449.5,224.5C 449.5,249.5 449.5,274.5 449.5,299.5C 425.167,299.5 400.833,299.5 376.5,299.5C 375.353,275.209 375.186,250.876 376,226.5C 376.717,225.956 377.217,225.289 377.5,224.5 Z"/></g>
<g><path style="opacity:1" fill="#adbede" d="M 449.5,224.5 C 474.5,224.5 499.5,224.5 524.5,224.5C 524.5,224.833 524.5,225.167 524.5,225.5C 523.351,225.791 522.684,226.624 522.5,228C 523.818,252.162 523.818,275.996 522.5,299.5C 498.167,299.5 473.833,299.5 449.5,299.5C 449.5,274.5 449.5,249.5 449.5,224.5 Z"/></g>
<g><path style="opacity:1" fill="#cad7ea" d="M 524.5,224.5 C 525.5,224.5 526.5,224.5 527.5,224.5C 551.5,224.5 575.5,224.5 599.5,224.5C 599.5,249.5 599.5,274.5 599.5,299.5C 574.5,299.5 549.5,299.5 524.5,299.5C 524.5,274.833 524.5,250.167 524.5,225.5C 524.5,225.167 524.5,224.833 524.5,224.5 Z"/></g>
<g><path style="opacity:1" fill="#b0bfda" d="M 524.5,225.5 C 524.5,250.167 524.5,274.833 524.5,299.5C 523.833,299.5 523.167,299.5 522.5,299.5C 523.818,275.996 523.818,252.162 522.5,228C 522.684,226.624 523.351,225.791 524.5,225.5 Z"/></g>
<g><path style="opacity:1" fill="#c8d8ef" d="M 74.5,226.5 C 79.0407,226.331 79.374,226.998 75.5,228.5C 76.4837,251.633 76.817,274.633 76.5,297.5C 76.0431,298.298 75.3764,298.631 74.5,298.5C 74.5,274.5 74.5,250.5 74.5,226.5 Z"/></g>
<g><path style="opacity:1" fill="#b1bfd9" d="M 223.5,224.5 C 223.833,224.5 224.167,224.5 224.5,224.5C 224.5,249.5 224.5,274.5 224.5,299.5C 224.167,299.5 223.833,299.5 223.5,299.5C 223.427,274.347 223.427,249.347 223.5,224.5 Z"/></g>
<g><path style="opacity:1" fill="#c8d8ef" d="M 374.5,224.5 C 375.5,224.5 376.5,224.5 377.5,224.5C 377.217,225.289 376.717,225.956 376,226.5C 375.186,250.876 375.353,275.209 376.5,299.5C 375.833,299.5 375.167,299.5 374.5,299.5C 374.5,274.5 374.5,249.5 374.5,224.5 Z"/></g>
<g><path style="opacity:1" fill="#aec0d9" d="M 71.5,224.5 C 72.5,224.5 73.5,224.5 74.5,224.5C 74.5,225.167 74.5,225.833 74.5,226.5C 74.5,250.5 74.5,274.5 74.5,298.5C 74.5,298.833 74.5,299.167 74.5,299.5C 73.1667,299.5 71.8333,299.5 70.5,299.5C 71.0906,298.849 71.7573,298.182 72.5,297.5C 72.2907,296.914 71.9574,296.414 71.5,296C 72.8217,285.226 73.4884,274.226 73.5,263C 73.1359,251.168 73.1359,239.502 73.5,228C 73.0217,226.697 72.355,225.531 71.5,224.5 Z"/></g>
<g><path style="opacity:1" fill="#afbcdc" d="M 299.5,228.5 C 300.397,229.598 301.23,229.598 302,228.5C 302.333,229.167 302.667,229.833 303,230.5C 303.833,252.841 303.666,275.174 302.5,297.5C 302.167,297.333 301.833,297.167 301.5,297C 302.66,275.24 302.827,253.406 302,231.5C 301.329,230.748 300.496,230.414 299.5,230.5C 299.5,229.833 299.5,229.167 299.5,228.5 Z"/></g>
<g><path style="opacity:1" fill="#aec0d9" d="M 370.5,224.5 C 371.167,224.5 371.833,224.5 372.5,224.5C 373.167,224.5 373.833,224.5 374.5,224.5C 374.5,249.5 374.5,274.5 374.5,299.5C 374.167,299.5 373.833,299.5 373.5,299.5C 373.082,298.778 372.416,298.278 371.5,298C 372.126,297.25 372.626,296.416 373,295.5C 373.667,273.833 373.667,252.167 373,230.5C 372.346,231.696 371.846,231.696 371.5,230.5C 372.025,229.808 372.692,229.308 373.5,229C 371.883,227.908 370.883,226.408 370.5,224.5 Z"/></g>
<g><path style="opacity:1" fill="#afbcdd" d="M 453.5,230.5 C 454.239,230.369 454.906,230.536 455.5,231C 454.515,253.368 454.181,275.534 454.5,297.5C 453.5,275.177 453.167,252.843 453.5,230.5 Z"/></g>
<g><path style="opacity:1" fill="#cbd7ea" d="M -0.5,299.5 C 23.1667,299.5 46.8333,299.5 70.5,299.5C 71.8333,299.5 73.1667,299.5 74.5,299.5C 74.5,300.5 74.5,301.5 74.5,302.5C 73.7611,302.369 73.0944,302.536 72.5,303C 73.8333,324.667 73.8333,346.333 72.5,368C 73.0848,369.302 73.7515,370.469 74.5,371.5C 74.5,372.5 74.5,373.5 74.5,374.5C 73.5,374.5 72.5,374.5 71.5,374.5C 47.5,374.5 23.5,374.5 -0.5,374.5C -0.5,349.5 -0.5,324.5 -0.5,299.5 Z"/></g>
<g><path style="opacity:1" fill="#cbd7ea" d="M 149.5,299.5 C 174.167,299.5 198.833,299.5 223.5,299.5C 223.833,299.5 224.167,299.5 224.5,299.5C 224.5,299.833 224.5,300.167 224.5,300.5C 224.5,323.5 224.5,346.5 224.5,369.5C 224.5,371.167 224.5,372.833 224.5,374.5C 199.5,374.5 174.5,374.5 149.5,374.5C 149.5,349.5 149.5,324.5 149.5,299.5 Z"/></g>
<g><path style="opacity:1" fill="#adbede" d="M 224.5,300.5 C 224.5,300.167 224.5,299.833 224.5,299.5C 249.5,299.5 274.5,299.5 299.5,299.5C 299.5,324.5 299.5,349.5 299.5,374.5C 274.5,374.5 249.5,374.5 224.5,374.5C 224.5,372.833 224.5,371.167 224.5,369.5C 225.843,347.461 227.177,325.295 228.5,303C 227.529,301.519 226.196,300.685 224.5,300.5 Z"/></g>
<g><path style="opacity:1" fill="#cbd7e9" d="M 299.5,299.5 C 323.833,299.5 348.167,299.5 372.5,299.5C 373.804,322.346 373.804,345.512 372.5,369C 372.808,370.459 373.475,371.626 374.5,372.5C 374.5,373.167 374.5,373.833 374.5,374.5C 373.5,374.5 372.5,374.5 371.5,374.5C 347.5,374.5 323.5,374.5 299.5,374.5C 299.5,349.5 299.5,324.5 299.5,299.5 Z"/></g>
<g><path style="opacity:1" fill="#afc0d9" d="M 374.5,299.5 C 375.167,299.5 375.833,299.5 376.5,299.5C 375.214,324.691 375.214,349.691 376.5,374.5C 375.833,374.5 375.167,374.5 374.5,374.5C 374.5,373.833 374.5,373.167 374.5,372.5C 374.5,348.167 374.5,323.833 374.5,299.5 Z"/></g>
<g><path style="opacity:1" fill="#cbd7ea" d="M 449.5,299.5 C 473.833,299.5 498.167,299.5 522.5,299.5C 523.167,299.5 523.833,299.5 524.5,299.5C 524.5,300.5 524.5,301.5 524.5,302.5C 524.5,325.5 524.5,348.5 524.5,371.5C 524.5,372.5 524.5,373.5 524.5,374.5C 523.167,374.5 521.833,374.5 520.5,374.5C 498.833,374.5 477.167,374.5 455.5,374.5C 453.5,374.5 451.5,374.5 449.5,374.5C 449.5,349.5 449.5,324.5 449.5,299.5 Z"/></g>
<g><path style="opacity:1" fill="#c9d8ee" d="M 372.5,299.5 C 372.833,299.5 373.167,299.5 373.5,299.5C 373.833,299.5 374.167,299.5 374.5,299.5C 374.5,323.833 374.5,348.167 374.5,372.5C 373.475,371.626 372.808,370.459 372.5,369C 373.804,345.512 373.804,322.346 372.5,299.5 Z"/></g>
<g><path style="opacity:1" fill="#adbfde" d="M 376.5,299.5 C 400.833,299.5 425.167,299.5 449.5,299.5C 449.5,324.5 449.5,349.5 449.5,374.5C 448.833,374.5 448.167,374.5 447.5,374.5C 424.5,374.5 401.5,374.5 378.5,374.5C 377.833,374.5 377.167,374.5 376.5,374.5C 375.214,349.691 375.214,324.691 376.5,299.5 Z"/></g>
<g><path style="opacity:1" fill="#aebfde" d="M 524.5,299.5 C 549.5,299.5 574.5,299.5 599.5,299.5C 599.5,324.5 599.5,349.5 599.5,374.5C 574.5,374.5 549.5,374.5 524.5,374.5C 524.5,373.5 524.5,372.5 524.5,371.5C 525.478,371.189 526.145,370.522 526.5,369.5C 525.843,347.039 525.177,324.706 524.5,302.5C 524.5,301.5 524.5,300.5 524.5,299.5 Z"/></g>
<g><path style="opacity:1" fill="#c9d7f0" d="M 74.5,302.5 C 74.5,325.5 74.5,348.5 74.5,371.5C 73.7515,370.469 73.0848,369.302 72.5,368C 73.8333,346.333 73.8333,324.667 72.5,303C 73.0944,302.536 73.7611,302.369 74.5,302.5 Z"/></g>
<g><path style="opacity:1" fill="#aec0dd" d="M 74.5,299.5 C 99.5,299.5 124.5,299.5 149.5,299.5C 149.5,324.5 149.5,349.5 149.5,374.5C 147.5,374.5 145.5,374.5 143.5,374.5C 144.872,372.911 146.539,371.578 148.5,370.5C 148.466,347.953 148.466,325.286 148.5,302.5C 125.251,300.439 101.917,299.939 78.5,301C 77.5838,301.374 76.7504,301.874 76,302.5C 75.3333,324.167 75.3333,345.833 76,367.5C 76.2927,369.925 77.4593,371.758 79.5,373C 78.944,373.383 78.6107,373.883 78.5,374.5C 77.5,374.5 76.5,374.5 75.5,374.5C 75.1667,374.5 74.8333,374.5 74.5,374.5C 74.5,373.5 74.5,372.5 74.5,371.5C 74.5,348.5 74.5,325.5 74.5,302.5C 74.5,301.5 74.5,300.5 74.5,299.5 Z"/></g>
<g><path style="opacity:1" fill="#adbfde" d="M 143.5,374.5 C 121.833,374.5 100.167,374.5 78.5,374.5C 78.6107,373.883 78.944,373.383 79.5,373C 77.4593,371.758 76.2927,369.925 76,367.5C 75.3333,345.833 75.3333,324.167 76,302.5C 76.7504,301.874 77.5838,301.374 78.5,301C 101.917,299.939 125.251,300.439 148.5,302.5C 148.466,325.286 148.466,347.953 148.5,370.5C 146.539,371.578 144.872,372.911 143.5,374.5 Z"/></g>
<g><path style="opacity:1" fill="#aebdda" d="M 224.5,300.5 C 226.196,300.685 227.529,301.519 228.5,303C 227.177,325.295 225.843,347.461 224.5,369.5C 224.5,346.5 224.5,323.5 224.5,300.5 Z"/></g>
<g><path style="opacity:1" fill="#afbed8" d="M 524.5,302.5 C 525.177,324.706 525.843,347.039 526.5,369.5C 526.145,370.522 525.478,371.189 524.5,371.5C 524.5,348.5 524.5,325.5 524.5,302.5 Z"/></g>
<g><path style="opacity:1" fill="#adbfdf" d="M -0.5,374.5 C 23.5,374.5 47.5,374.5 71.5,374.5C 71.5,375.167 71.8333,375.5 72.5,375.5C 72.823,399.908 72.4897,424.241 71.5,448.5C 71.5,448.833 71.5,449.167 71.5,449.5C 47.5,449.5 23.5,449.5 -0.5,449.5C -0.5,424.5 -0.5,399.5 -0.5,374.5 Z"/></g>
<g><path style="opacity:1" fill="#cbd7e9" d="M 75.5,374.5 C 76.5,374.5 77.5,374.5 78.5,374.5C 100.167,374.5 121.833,374.5 143.5,374.5C 145.5,374.5 147.5,374.5 149.5,374.5C 149.5,399.5 149.5,424.5 149.5,449.5C 148.5,449.5 147.5,449.5 146.5,449.5C 123.167,449.5 99.8333,449.5 76.5,449.5C 76.1667,449.5 75.8333,449.5 75.5,449.5C 76.8249,424.47 76.8249,399.47 75.5,374.5 Z"/></g>
<g><path style="opacity:1" fill="#aebfde" d="M 149.5,374.5 C 174.5,374.5 199.5,374.5 224.5,374.5C 224.5,399.5 224.5,424.5 224.5,449.5C 199.5,449.5 174.5,449.5 149.5,449.5C 149.5,424.5 149.5,399.5 149.5,374.5 Z"/></g>
<g><path style="opacity:1" fill="#cad7ea" d="M 224.5,374.5 C 249.5,374.5 274.5,374.5 299.5,374.5C 299.5,399.5 299.5,424.5 299.5,449.5C 274.5,449.5 249.5,449.5 224.5,449.5C 224.5,424.5 224.5,399.5 224.5,374.5 Z"/></g>
<g><path style="opacity:1" fill="#adbede" d="M 299.5,374.5 C 323.5,374.5 347.5,374.5 371.5,374.5C 373.476,399.272 374.142,424.272 373.5,449.5C 348.833,449.5 324.167,449.5 299.5,449.5C 299.5,424.5 299.5,399.5 299.5,374.5 Z"/></g>
<g><path style="opacity:1" fill="#cbd7ea" d="M 378.5,374.5 C 401.5,374.5 424.5,374.5 447.5,374.5C 448.157,398.931 448.824,423.264 449.5,447.5C 449.5,448.167 449.5,448.833 449.5,449.5C 425.167,449.5 400.833,449.5 376.5,449.5C 376.611,448.883 376.944,448.383 377.5,448C 375.516,424.062 374.849,399.896 375.5,375.5C 376.791,375.737 377.791,375.404 378.5,374.5 Z"/></g>
<g><path style="opacity:1" fill="#adbede" d="M 455.5,374.5 C 477.167,374.5 498.833,374.5 520.5,374.5C 521.209,375.404 522.209,375.737 523.5,375.5C 523.833,399.509 523.5,423.509 522.5,447.5C 518.697,448.104 515.031,448.77 511.5,449.5C 492.167,449.5 472.833,449.5 453.5,449.5C 453.5,424.833 453.5,400.167 453.5,375.5C 454.492,375.672 455.158,375.338 455.5,374.5 Z"/></g>
<g><path style="opacity:1" fill="#cad7ea" d="M 524.5,374.5 C 549.5,374.5 574.5,374.5 599.5,374.5C 599.5,399.5 599.5,424.5 599.5,449.5C 575.167,449.5 550.833,449.5 526.5,449.5C 525.833,449.5 525.167,449.5 524.5,449.5C 524.5,424.5 524.5,399.5 524.5,374.5 Z"/></g>
<g><path style="opacity:1" fill="#aec0dd" d="M 72.5,375.5 C 73.1666,387.495 73.4999,399.662 73.5,412C 73.4991,424.519 72.8324,436.686 71.5,448.5C 72.4897,424.241 72.823,399.908 72.5,375.5 Z"/></g>
<g><path style="opacity:1" fill="#aec0d9" d="M 71.5,374.5 C 72.5,374.5 73.5,374.5 74.5,374.5C 74.5,399.5 74.5,424.5 74.5,449.5C 73.5,449.5 72.5,449.5 71.5,449.5C 71.5,449.167 71.5,448.833 71.5,448.5C 72.8324,436.686 73.4991,424.519 73.5,412C 73.4999,399.662 73.1666,387.495 72.5,375.5C 71.8333,375.5 71.5,375.167 71.5,374.5 Z"/></g>
<g><path style="opacity:1" fill="#c8d8ef" d="M 74.5,374.5 C 74.8333,374.5 75.1667,374.5 75.5,374.5C 76.8249,399.47 76.8249,424.47 75.5,449.5C 75.1667,449.5 74.8333,449.5 74.5,449.5C 74.5,424.5 74.5,399.5 74.5,374.5 Z"/></g>
<g><path style="opacity:1" fill="#aec0d9" d="M 371.5,374.5 C 372.5,374.5 373.5,374.5 374.5,374.5C 374.5,399.5 374.5,424.5 374.5,449.5C 374.167,449.5 373.833,449.5 373.5,449.5C 374.142,424.272 373.476,399.272 371.5,374.5 Z"/></g>
<g><path style="opacity:1" fill="#c7d8ef" d="M 374.5,374.5 C 375.167,374.5 375.833,374.5 376.5,374.5C 377.167,374.5 377.833,374.5 378.5,374.5C 377.791,375.404 376.791,375.737 375.5,375.5C 374.849,399.896 375.516,424.062 377.5,448C 376.944,448.383 376.611,448.883 376.5,449.5C 375.833,449.5 375.167,449.5 374.5,449.5C 374.5,424.5 374.5,399.5 374.5,374.5 Z"/></g>
<g><path style="opacity:1" fill="#c9d9ef" d="M 447.5,374.5 C 448.167,374.5 448.833,374.5 449.5,374.5C 449.5,398.833 449.5,423.167 449.5,447.5C 448.824,423.264 448.157,398.931 447.5,374.5 Z"/></g>
<g><path style="opacity:1" fill="#afc0dc" d="M 449.5,374.5 C 451.5,374.5 453.5,374.5 455.5,374.5C 455.158,375.338 454.492,375.672 453.5,375.5C 452.5,375.5 451.5,375.5 450.5,375.5C 450.177,400.241 450.51,424.908 451.5,449.5C 450.833,449.5 450.167,449.5 449.5,449.5C 449.5,448.833 449.5,448.167 449.5,447.5C 449.5,423.167 449.5,398.833 449.5,374.5 Z"/></g>
<g><path style="opacity:1" fill="#adbfdf" d="M 453.5,375.5 C 453.5,400.167 453.5,424.833 453.5,449.5C 452.833,449.5 452.167,449.5 451.5,449.5C 450.51,424.908 450.177,400.241 450.5,375.5C 451.5,375.5 452.5,375.5 453.5,375.5 Z"/></g>
<g><path style="opacity:1" fill="#b0c0da" d="M 520.5,374.5 C 521.833,374.5 523.167,374.5 524.5,374.5C 524.5,399.5 524.5,424.5 524.5,449.5C 520.167,449.5 515.833,449.5 511.5,449.5C 515.031,448.77 518.697,448.104 522.5,447.5C 523.5,423.509 523.833,399.509 523.5,375.5C 522.209,375.737 521.209,375.404 520.5,374.5 Z"/></g>
<g><path style="opacity:1" fill="#cbd7e9" d="M -0.5,449.5 C 23.5,449.5 47.5,449.5 71.5,449.5C 72.1847,451.414 72.6847,453.414 73,455.5C 73.8265,477.073 73.6598,498.573 72.5,520C 73.0442,520.717 73.7109,521.217 74.5,521.5C 74.5,522.5 74.5,523.5 74.5,524.5C 71.1667,524.5 67.8333,524.5 64.5,524.5C 42.8333,524.5 21.1667,524.5 -0.5,524.5C -0.5,499.5 -0.5,474.5 -0.5,449.5 Z"/></g>
<g><path style="opacity:1" fill="#c9d7f0" d="M 71.5,449.5 C 72.5,449.5 73.5,449.5 74.5,449.5C 74.5,473.5 74.5,497.5 74.5,521.5C 73.7109,521.217 73.0442,520.717 72.5,520C 73.6598,498.573 73.8265,477.073 73,455.5C 72.6847,453.414 72.1847,451.414 71.5,449.5 Z"/></g>
<g><path style="opacity:1" fill="#adbfde" d="M 76.5,449.5 C 99.8333,449.5 123.167,449.5 146.5,449.5C 146.892,451.179 147.392,452.846 148,454.5C 148.168,477.004 148.668,499.337 149.5,521.5C 149.5,522.5 149.5,523.5 149.5,524.5C 124.833,524.5 100.167,524.5 75.5,524.5C 75.5106,522.983 76.1772,521.816 77.5,521C 76.1783,510.226 75.5116,499.226 75.5,488C 75.6667,477.167 75.8333,466.333 76,455.5C 77.3318,453.45 77.4985,451.45 76.5,449.5 Z"/></g>
<g><path style="opacity:1" fill="#cbd7ea" d="M 149.5,449.5 C 174.5,449.5 199.5,449.5 224.5,449.5C 224.5,450.167 224.5,450.833 224.5,451.5C 224.5,475.833 224.5,500.167 224.5,524.5C 199.5,524.5 174.5,524.5 149.5,524.5C 149.5,523.5 149.5,522.5 149.5,521.5C 149.5,497.5 149.5,473.5 149.5,449.5 Z"/></g>
<g><path style="opacity:1" fill="#adbede" d="M 224.5,449.5 C 249.5,449.5 274.5,449.5 299.5,449.5C 299.5,474.5 299.5,499.5 299.5,524.5C 276.167,524.5 252.833,524.5 229.5,524.5C 228.653,523.034 227.32,522.2 225.5,522C 226.167,521.667 226.833,521.333 227.5,521C 226.833,498.333 226.167,475.667 225.5,453C 230.541,451.992 230.208,451.492 224.5,451.5C 224.5,450.833 224.5,450.167 224.5,449.5 Z"/></g>
<g><path style="opacity:1" fill="#cbd7e9" d="M 299.5,449.5 C 324.167,449.5 348.833,449.5 373.5,449.5C 373.833,449.5 374.167,449.5 374.5,449.5C 374.5,451.167 374.5,452.833 374.5,454.5C 373.668,475.996 373.168,497.663 373,519.5C 370.904,520.715 371.071,521.549 373.5,522C 371.381,522.342 371.047,523.175 372.5,524.5C 372.167,524.5 371.833,524.5 371.5,524.5C 347.5,524.5 323.5,524.5 299.5,524.5C 299.5,499.5 299.5,474.5 299.5,449.5 Z"/></g>
<g><path style="opacity:1" fill="#adbede" d="M 376.5,449.5 C 400.833,449.5 425.167,449.5 449.5,449.5C 449.5,474.5 449.5,499.5 449.5,524.5C 425.833,524.5 402.167,524.5 378.5,524.5C 377.313,523.466 376.48,522.133 376,520.5C 375.197,496.803 375.363,473.136 376.5,449.5 Z"/></g>
<g><path style="opacity:1" fill="#cbd7ea" d="M 449.5,449.5 C 450.167,449.5 450.833,449.5 451.5,449.5C 452.167,449.5 452.833,449.5 453.5,449.5C 472.833,449.5 492.167,449.5 511.5,449.5C 515.833,449.5 520.167,449.5 524.5,449.5C 524.5,474.5 524.5,499.5 524.5,524.5C 524.167,524.5 523.833,524.5 523.5,524.5C 498.833,524.5 474.167,524.5 449.5,524.5C 449.5,499.5 449.5,474.5 449.5,449.5 Z"/></g>
<g><path style="opacity:1" fill="#adbfde" d="M 526.5,449.5 C 550.833,449.5 575.167,449.5 599.5,449.5C 599.5,474.5 599.5,499.5 599.5,524.5C 575.5,524.5 551.5,524.5 527.5,524.5C 526.207,512.488 525.54,500.322 525.5,488C 525.667,476.5 525.833,465 526,453.5C 528.096,452.285 527.929,451.451 525.5,451C 526.056,450.617 526.389,450.117 526.5,449.5 Z"/></g>
<g><path style="opacity:1" fill="#afc0dd" d="M 146.5,449.5 C 147.5,449.5 148.5,449.5 149.5,449.5C 149.5,473.5 149.5,497.5 149.5,521.5C 148.668,499.337 148.168,477.004 148,454.5C 147.392,452.846 146.892,451.179 146.5,449.5 Z"/></g>
<g><path style="opacity:1" fill="#afc0da" d="M 374.5,449.5 C 375.167,449.5 375.833,449.5 376.5,449.5C 375.363,473.136 375.197,496.803 376,520.5C 376.48,522.133 377.313,523.466 378.5,524.5C 377.833,524.5 377.167,524.5 376.5,524.5C 375.833,524.5 375.167,524.5 374.5,524.5C 374.5,501.167 374.5,477.833 374.5,454.5C 374.5,452.833 374.5,451.167 374.5,449.5 Z"/></g>
<g><path style="opacity:1" fill="#afbfdb" d="M 74.5,449.5 C 74.8333,449.5 75.1667,449.5 75.5,449.5C 75.8333,449.5 76.1667,449.5 76.5,449.5C 77.4985,451.45 77.3318,453.45 76,455.5C 75.8333,466.333 75.6667,477.167 75.5,488C 75.5116,499.226 76.1783,510.226 77.5,521C 76.1772,521.816 75.5106,522.983 75.5,524.5C 75.1667,524.5 74.8333,524.5 74.5,524.5C 74.5,523.5 74.5,522.5 74.5,521.5C 74.5,497.5 74.5,473.5 74.5,449.5 Z"/></g>
<g><path style="opacity:1" fill="#afbdda" d="M 224.5,451.5 C 230.208,451.492 230.541,451.992 225.5,453C 226.167,475.667 226.833,498.333 227.5,521C 226.833,521.333 226.167,521.667 225.5,522C 227.32,522.2 228.653,523.034 229.5,524.5C 227.833,524.5 226.167,524.5 224.5,524.5C 224.5,500.167 224.5,475.833 224.5,451.5 Z"/></g>
<g><path style="opacity:1" fill="#c9d8ee" d="M 374.5,454.5 C 374.5,477.833 374.5,501.167 374.5,524.5C 373.833,524.5 373.167,524.5 372.5,524.5C 371.047,523.175 371.381,522.342 373.5,522C 371.071,521.549 370.904,520.715 373,519.5C 373.168,497.663 373.668,475.996 374.5,454.5 Z"/></g>
<g><path style="opacity:1" fill="#afbed8" d="M 524.5,449.5 C 525.167,449.5 525.833,449.5 526.5,449.5C 526.389,450.117 526.056,450.617 525.5,451C 527.929,451.451 528.096,452.285 526,453.5C 525.833,465 525.667,476.5 525.5,488C 525.54,500.322 526.207,512.488 527.5,524.5C 526.5,524.5 525.5,524.5 524.5,524.5C 524.5,499.5 524.5,474.5 524.5,449.5 Z"/></g>
<g><path style="opacity:1" fill="#adbfde" d="M -0.5,524.5 C 21.1667,524.5 42.8333,524.5 64.5,524.5C 66.8927,525.21 69.3927,525.877 72,526.5C 72.5,550.831 72.6666,575.164 72.5,599.5C 48.1667,599.5 23.8333,599.5 -0.5,599.5C -0.5,574.5 -0.5,549.5 -0.5,524.5 Z"/></g>
<g><path style="opacity:1" fill="#cbd7e9" d="M 74.5,524.5 C 74.8333,524.5 75.1667,524.5 75.5,524.5C 100.167,524.5 124.833,524.5 149.5,524.5C 149.5,549.5 149.5,574.5 149.5,599.5C 125.167,599.5 100.833,599.5 76.5,599.5C 77.157,574.81 76.4903,550.477 74.5,526.5C 74.5,525.833 74.5,525.167 74.5,524.5 Z"/></g>
<g><path style="opacity:1" fill="#aebfde" d="M 149.5,524.5 C 174.5,524.5 199.5,524.5 224.5,524.5C 224.5,549.5 224.5,574.5 224.5,599.5C 199.5,599.5 174.5,599.5 149.5,599.5C 149.5,574.5 149.5,549.5 149.5,524.5 Z"/></g>
<g><path style="opacity:1" fill="#cad7ea" d="M 224.5,524.5 C 226.167,524.5 227.833,524.5 229.5,524.5C 252.833,524.5 276.167,524.5 299.5,524.5C 299.5,549.5 299.5,574.5 299.5,599.5C 274.5,599.5 249.5,599.5 224.5,599.5C 224.5,574.5 224.5,549.5 224.5,524.5 Z"/></g>
<g><path style="opacity:1" fill="#adbede" d="M 299.5,524.5 C 323.5,524.5 347.5,524.5 371.5,524.5C 371.461,525.756 371.961,526.756 373,527.5C 373.5,551.498 373.667,575.498 373.5,599.5C 348.833,599.5 324.167,599.5 299.5,599.5C 299.5,574.5 299.5,549.5 299.5,524.5 Z"/></g>
<g><path style="opacity:1" fill="#cbd7ea" d="M 376.5,524.5 C 377.167,524.5 377.833,524.5 378.5,524.5C 402.167,524.5 425.833,524.5 449.5,524.5C 449.5,549.5 449.5,574.5 449.5,599.5C 424.833,599.5 400.167,599.5 375.5,599.5C 375.177,574.425 375.51,549.425 376.5,524.5 Z"/></g>
<g><path style="opacity:1" fill="#adbfde" d="M 449.5,524.5 C 474.167,524.5 498.833,524.5 523.5,524.5C 523.467,549.322 523.467,574.322 523.5,599.5C 500.5,599.5 477.5,599.5 454.5,599.5C 454.517,574.891 454.517,550.557 454.5,526.5C 453.5,550.824 453.167,575.158 453.5,599.5C 452.167,599.5 450.833,599.5 449.5,599.5C 449.5,574.5 449.5,549.5 449.5,524.5 Z"/></g>
<g><path style="opacity:1" fill="#cad7ea" d="M 524.5,524.5 C 525.5,524.5 526.5,524.5 527.5,524.5C 551.5,524.5 575.5,524.5 599.5,524.5C 599.5,549.5 599.5,574.5 599.5,599.5C 574.5,599.5 549.5,599.5 524.5,599.5C 524.5,574.5 524.5,549.5 524.5,524.5 Z"/></g>
<g><path style="opacity:1" fill="#aec0d9" d="M 371.5,524.5 C 371.833,524.5 372.167,524.5 372.5,524.5C 373.167,524.5 373.833,524.5 374.5,524.5C 374.5,549.5 374.5,574.5 374.5,599.5C 374.167,599.5 373.833,599.5 373.5,599.5C 373.667,575.498 373.5,551.498 373,527.5C 371.961,526.756 371.461,525.756 371.5,524.5 Z"/></g>
<g><path style="opacity:1" fill="#c8d8ef" d="M 74.5,526.5 C 76.4903,550.477 77.157,574.81 76.5,599.5C 75.8333,599.5 75.1667,599.5 74.5,599.5C 74.5,575.167 74.5,550.833 74.5,526.5 Z"/></g>
<g><path style="opacity:1" fill="#b0bfd9" d="M 523.5,524.5 C 523.833,524.5 524.167,524.5 524.5,524.5C 524.5,549.5 524.5,574.5 524.5,599.5C 524.167,599.5 523.833,599.5 523.5,599.5C 523.467,574.322 523.467,549.322 523.5,524.5 Z"/></g>
<g><path style="opacity:1" fill="#aec0dc" d="M 64.5,524.5 C 67.8333,524.5 71.1667,524.5 74.5,524.5C 74.5,525.167 74.5,525.833 74.5,526.5C 74.5,550.833 74.5,575.167 74.5,599.5C 73.8333,599.5 73.1667,599.5 72.5,599.5C 72.6666,575.164 72.5,550.831 72,526.5C 69.3927,525.877 66.8927,525.21 64.5,524.5 Z"/></g>
<g><path style="opacity:1" fill="#c8d8ef" d="M 374.5,524.5 C 375.167,524.5 375.833,524.5 376.5,524.5C 375.51,549.425 375.177,574.425 375.5,599.5C 375.167,599.5 374.833,599.5 374.5,599.5C 374.5,574.5 374.5,549.5 374.5,524.5 Z"/></g>
<g><path style="opacity:1" fill="#afbcdc" d="M 454.5,599.5 C 454.167,599.5 453.833,599.5 453.5,599.5C 453.167,575.158 453.5,550.824 454.5,526.5C 454.517,550.557 454.517,574.891 454.5,599.5 Z"/></g>
</svg>
