<?xml version="1.0" encoding="UTF-8"?>
<!DOCTYPE svg PUBLIC "-//W3C//DTD SVG 1.1//EN" "http://www.w3.org/Graphics/SVG/1.1/DTD/svg11.dtd">
<svg xmlns="http://www.w3.org/2000/svg" version="1.1" width="600px" height="600px" style="shape-rendering:geometricPrecision; text-rendering:geometricPrecision; image-rendering:optimizeQuality; fill-rule:evenodd; clip-rule:evenodd" xmlns:xlink="http://www.w3.org/1999/xlink">
<g><path style="opacity:1" fill="#e9cbd0" d="M -0.5,-0.5 C 24.1667,-0.5 48.8333,-0.5 73.5,-0.5C 73.6666,23.8356 73.5,48.1689 73,72.5C 71.6976,73.0848 70.531,73.7515 69.5,74.5C 68.8333,74.5 68.1667,74.5 67.5,74.5C 44.8333,74.5 22.1667,74.5 -0.5,74.5C -0.5,49.5 -0.5,24.5 -0.5,-0.5 Z"/></g>
<g><path style="opacity:1" fill="#f0c9cf" d="M 73.5,-0.5 C 73.8333,-0.5 74.1667,-0.5 74.5,-0.5C 74.5,24.5 74.5,49.5 74.5,74.5C 72.8333,74.5 71.1667,74.5 69.5,74.5C 70.531,73.7515 71.6976,73.0848 73,72.5C 73.5,48.1689 73.6666,23.8356 73.5,-0.5 Z"/></g>
<g><path style="opacity:1" fill="#ddadb6" d="M 74.5,-0.5 C 75.5,-0.5 76.5,-0.5 77.5,-0.5C 77.8277,24.0747 77.4944,48.5747 76.5,73C 77.4158,73.2784 78.0825,73.7784 78.5,74.5C 77.1667,74.5 75.8333,74.5 74.5,74.5C 74.5,49.5 74.5,24.5 74.5,-0.5 Z"/></g>
<g><path style="opacity:1" fill="#deadb4" d="M 77.5,-0.5 C 101.5,-0.5 125.5,-0.5 149.5,-0.5C 149.5,24.5 149.5,49.5 149.5,74.5C 148.5,74.5 147.5,74.5 146.5,74.5C 146.631,73.7611 146.464,73.0944 146,72.5C 123.736,73.1616 101.569,73.8283 79.5,74.5C 79.1667,74.5 78.8333,74.5 78.5,74.5C 78.0825,73.7784 77.4158,73.2784 76.5,73C 77.4944,48.5747 77.8277,24.0747 77.5,-0.5 Z"/></g>
<g><path style="opacity:1" fill="#eacbd0" d="M 149.5,-0.5 C 174.5,-0.5 199.5,-0.5 224.5,-0.5C 224.5,23.8333 224.5,48.1667 224.5,72.5C 224.5,73.1667 224.5,73.8333 224.5,74.5C 199.5,74.5 174.5,74.5 149.5,74.5C 149.5,49.5 149.5,24.5 149.5,-0.5 Z"/></g>
<g><path style="opacity:1" fill="#daafb3" d="M 224.5,-0.5 C 225.167,-0.5 225.833,-0.5 226.5,-0.5C 227.157,24.1896 226.49,48.5229 224.5,72.5C 224.5,48.1667 224.5,23.8333 224.5,-0.5 Z"/></g>
<g><path style="opacity:1" fill="#deadb4" d="M 226.5,-0.5 C 250.833,-0.5 275.167,-0.5 299.5,-0.5C 299.5,24.5 299.5,49.5 299.5,74.5C 296.833,74.5 294.167,74.5 291.5,74.5C 291.38,73.4138 290.713,72.7472 289.5,72.5C 269.687,73.1435 250.02,73.8101 230.5,74.5C 228.5,74.5 226.5,74.5 224.5,74.5C 224.5,73.8333 224.5,73.1667 224.5,72.5C 226.49,48.5229 227.157,24.1896 226.5,-0.5 Z"/></g>
<g><path style="opacity:1" fill="#e9cbd1" d="M 299.5,-0.5 C 324.167,-0.5 348.833,-0.5 373.5,-0.5C 373.467,24.6785 373.467,49.6785 373.5,74.5C 372.833,74.5 372.167,74.5 371.5,74.5C 347.5,74.5 323.5,74.5 299.5,74.5C 299.5,49.5 299.5,24.5 299.5,-0.5 Z"/></g>
<g><path style="opacity:1" fill="#eec9d0" d="M 373.5,-0.5 C 373.833,-0.5 374.167,-0.5 374.5,-0.5C 374.5,24.5 374.5,49.5 374.5,74.5C 374.167,74.5 373.833,74.5 373.5,74.5C 373.467,49.6785 373.467,24.6785 373.5,-0.5 Z"/></g>
<g><path style="opacity:1" fill="#daafb7" d="M 374.5,-0.5 C 374.833,-0.5 375.167,-0.5 375.5,-0.5C 375.5,23.5 375.5,47.5 375.5,71.5C 375.5,72.1667 375.833,72.5 376.5,72.5C 376.5,73.1667 376.5,73.8333 376.5,74.5C 375.833,74.5 375.167,74.5 374.5,74.5C 374.5,49.5 374.5,24.5 374.5,-0.5 Z"/></g>
<g><path style="opacity:1" fill="#dfadb5" d="M 375.5,-0.5 C 376.167,-0.5 376.833,-0.5 377.5,-0.5C 378.157,23.8566 377.49,47.8566 375.5,71.5C 375.5,47.5 375.5,23.5 375.5,-0.5 Z"/></g>
<g><path style="opacity:1" fill="#deadb3" d="M 377.5,-0.5 C 401.5,-0.5 425.5,-0.5 449.5,-0.5C 449.5,24.5 449.5,49.5 449.5,74.5C 448.833,74.5 448.167,74.5 447.5,74.5C 423.813,73.7604 400.146,73.0937 376.5,72.5C 375.833,72.5 375.5,72.1667 375.5,71.5C 377.49,47.8566 378.157,23.8566 377.5,-0.5 Z"/></g>
<g><path style="opacity:1" fill="#e9cbd0" d="M 449.5,-0.5 C 474.5,-0.5 499.5,-0.5 524.5,-0.5C 524.5,24.5 524.5,49.5 524.5,74.5C 524.167,74.5 523.833,74.5 523.5,74.5C 498.833,74.5 474.167,74.5 449.5,74.5C 449.5,49.5 449.5,24.5 449.5,-0.5 Z"/></g>
<g><path style="opacity:1" fill="#daafb4" d="M 524.5,-0.5 C 525.167,-0.5 525.833,-0.5 526.5,-0.5C 526.828,23.7414 526.494,47.9081 525.5,72C 526.756,72.4169 527.423,73.2502 527.5,74.5C 526.5,74.5 525.5,74.5 524.5,74.5C 524.5,49.5 524.5,24.5 524.5,-0.5 Z"/></g>
<g><path style="opacity:1" fill="#dfadb4" d="M 526.5,-0.5 C 550.833,-0.5 575.167,-0.5 599.5,-0.5C 599.5,24.5 599.5,49.5 599.5,74.5C 575.5,74.5 551.5,74.5 527.5,74.5C 527.423,73.2502 526.756,72.4169 525.5,72C 526.494,47.9081 526.828,23.7414 526.5,-0.5 Z"/></g>
<g><path style="opacity:1" fill="#e0acb6" d="M 146.5,74.5 C 124.167,74.5 101.833,74.5 79.5,74.5C 101.569,73.8283 123.736,73.1616 146,72.5C 146.464,73.0944 146.631,73.7611 146.5,74.5 Z"/></g>
<g><path style="opacity:1" fill="#e0acb6" d="M 291.5,74.5 C 271.167,74.5 250.833,74.5 230.5,74.5C 250.02,73.8101 269.687,73.1435 289.5,72.5C 290.713,72.7472 291.38,73.4138 291.5,74.5 Z"/></g>
<g><path style="opacity:1" fill="#e0acb5" d="M 376.5,72.5 C 400.146,73.0937 423.813,73.7604 447.5,74.5C 424.167,74.5 400.833,74.5 377.5,74.5C 377.167,74.5 376.833,74.5 376.5,74.5C 376.5,73.8333 376.5,73.1667 376.5,72.5 Z"/></g>
<g><path style="opacity:1" fill="#e9cbd0" d="M 74.5,74.5 C 75.8333,74.5 77.1667,74.5 78.5,74.5C 78.8333,74.5 79.1667,74.5 79.5,74.5C 101.833,74.5 124.167,74.5 146.5,74.5C 147.5,74.5 148.5,74.5 149.5,74.5C 149.5,99.5 149.5,124.5 149.5,149.5C 147.5,149.5 145.5,149.5 143.5,149.5C 120.833,149.5 98.1667,149.5 75.5,149.5C 75.9528,148.542 76.6195,147.708 77.5,147C 74.8333,146.333 74.8333,145.667 77.5,145C 76.8333,123 76.1667,101 75.5,79C 78.0515,77.4842 77.7181,76.6509 74.5,76.5C 74.5,75.8333 74.5,75.1667 74.5,74.5 Z"/></g>
<g><path style="opacity:1" fill="#eacbd1" d="M 224.5,74.5 C 226.5,74.5 228.5,74.5 230.5,74.5C 250.833,74.5 271.167,74.5 291.5,74.5C 294.167,74.5 296.833,74.5 299.5,74.5C 299.5,99.5 299.5,124.5 299.5,149.5C 274.5,149.5 249.5,149.5 224.5,149.5C 224.5,147.833 224.5,146.167 224.5,144.5C 225.239,144.631 225.906,144.464 226.5,144C 225.839,133.074 225.505,122.074 225.5,111C 225.512,99.7738 226.178,88.7738 227.5,78C 226.552,77.5172 225.552,77.3505 224.5,77.5C 224.5,76.5 224.5,75.5 224.5,74.5 Z"/></g>
<g><path style="opacity:1" fill="#eacbd1" d="M 377.5,74.5 C 400.833,74.5 424.167,74.5 447.5,74.5C 448.167,74.5 448.833,74.5 449.5,74.5C 449.5,99.5 449.5,124.5 449.5,149.5C 449.167,149.5 448.833,149.5 448.5,149.5C 424.833,149.5 401.167,149.5 377.5,149.5C 377.013,148.527 376.513,147.527 376,146.5C 375.833,134.833 375.667,123.167 375.5,111.5C 375.539,99.0117 376.206,86.6784 377.5,74.5 Z"/></g>
<g><path style="opacity:1" fill="#eacbd0" d="M 524.5,74.5 C 525.5,74.5 526.5,74.5 527.5,74.5C 551.5,74.5 575.5,74.5 599.5,74.5C 599.5,99.5 599.5,124.5 599.5,149.5C 574.5,149.5 549.5,149.5 524.5,149.5C 524.5,124.5 524.5,99.5 524.5,74.5 Z"/></g>
<g><path style="opacity:1" fill="#deadb3" d="M 371.5,77.5 C 372.167,78.1667 372.833,78.8333 373.5,79.5C 372.168,90.1458 371.501,101.146 371.5,112.5C 371.501,123.854 372.168,134.854 373.5,145.5C 373.082,146.222 372.416,146.722 371.5,147C 372.756,147.417 373.423,148.25 373.5,149.5C 373.167,149.5 372.833,149.5 372.5,149.5C 371.167,149.5 369.833,149.5 368.5,149.5C 346.004,148.668 323.337,148.168 300.5,148C 301.748,146.6 302.748,145.1 303.5,143.5C 303.831,121.993 303.497,100.66 302.5,79.5C 300.94,77.8706 301.273,76.704 303.5,76C 325.167,75.3333 346.833,75.3333 368.5,76C 367.833,76.3333 367.167,76.6667 366.5,77C 368.134,77.4935 369.801,77.6602 371.5,77.5 Z"/></g>
<g><path style="opacity:1" fill="#deadb4" d="M 449.5,74.5 C 474.167,74.5 498.833,74.5 523.5,74.5C 523.703,76.3904 523.037,77.8904 521.5,79C 522.177,100.958 522.844,122.958 523.5,145C 522.685,146.643 521.685,148.143 520.5,149.5C 496.833,149.5 473.167,149.5 449.5,149.5C 449.5,124.5 449.5,99.5 449.5,74.5 Z"/></g>
<g><path style="opacity:1" fill="#dfadb3" d="M -0.5,74.5 C 22.1667,74.5 44.8333,74.5 67.5,74.5C 68.5676,75.4345 69.901,75.7678 71.5,75.5C 70.8577,98.6619 71.5244,121.662 73.5,144.5C 72.8256,146.195 72.1589,147.862 71.5,149.5C 47.5,149.5 23.5,149.5 -0.5,149.5C -0.5,124.5 -0.5,99.5 -0.5,74.5 Z"/></g>
<g><path style="opacity:1" fill="#deadb4" d="M 149.5,74.5 C 174.5,74.5 199.5,74.5 224.5,74.5C 224.5,75.5 224.5,76.5 224.5,77.5C 224.5,99.8333 224.5,122.167 224.5,144.5C 224.5,146.167 224.5,147.833 224.5,149.5C 199.5,149.5 174.5,149.5 149.5,149.5C 149.5,124.5 149.5,99.5 149.5,74.5 Z"/></g>
<g><path style="opacity:1" fill="#efc8cf" d="M 74.5,76.5 C 77.7181,76.6509 78.0515,77.4842 75.5,79C 76.1667,101 76.8333,123 77.5,145C 74.8333,145.667 74.8333,146.333 77.5,147C 76.6195,147.708 75.9528,148.542 75.5,149.5C 75.1667,149.5 74.8333,149.5 74.5,149.5C 74.5,125.167 74.5,100.833 74.5,76.5 Z"/></g>
<g><path style="opacity:1" fill="#ecc8cd" d="M 224.5,77.5 C 225.552,77.3505 226.552,77.5172 227.5,78C 226.178,88.7738 225.512,99.7738 225.5,111C 225.505,122.074 225.839,133.074 226.5,144C 225.906,144.464 225.239,144.631 224.5,144.5C 224.5,122.167 224.5,99.8333 224.5,77.5 Z"/></g>
<g><path style="opacity:1" fill="#d9aeb7" d="M 371.5,74.5 C 372.167,74.5 372.833,74.5 373.5,74.5C 373.833,74.5 374.167,74.5 374.5,74.5C 374.5,99.5 374.5,124.5 374.5,149.5C 374.167,149.5 373.833,149.5 373.5,149.5C 373.423,148.25 372.756,147.417 371.5,147C 372.416,146.722 373.082,146.222 373.5,145.5C 373.5,123.5 373.5,101.5 373.5,79.5C 372.833,78.8333 372.167,78.1667 371.5,77.5C 372.239,77.631 372.906,77.4643 373.5,77C 371.065,76.9252 370.398,76.0919 371.5,74.5 Z"/></g>
<g><path style="opacity:1" fill="#efc8cf" d="M 374.5,74.5 C 375.167,74.5 375.833,74.5 376.5,74.5C 376.833,74.5 377.167,74.5 377.5,74.5C 376.206,86.6784 375.539,99.0117 375.5,111.5C 375.667,123.167 375.833,134.833 376,146.5C 376.513,147.527 377.013,148.527 377.5,149.5C 377.167,149.5 376.833,149.5 376.5,149.5C 375.833,149.5 375.167,149.5 374.5,149.5C 374.5,124.5 374.5,99.5 374.5,74.5 Z"/></g>
<g><path style="opacity:1" fill="#dcaeb6" d="M 67.5,74.5 C 68.1667,74.5 68.8333,74.5 69.5,74.5C 71.1667,74.5 72.8333,74.5 74.5,74.5C 74.5,75.1667 74.5,75.8333 74.5,76.5C 74.5,100.833 74.5,125.167 74.5,149.5C 73.8333,149.5 73.1667,149.5 72.5,149.5C 72.1667,149.5 71.8333,149.5 71.5,149.5C 72.1589,147.862 72.8256,146.195 73.5,144.5C 71.5244,121.662 70.8577,98.6619 71.5,75.5C 69.901,75.7678 68.5676,75.4345 67.5,74.5 Z"/></g>
<g><path style="opacity:1" fill="#dfadb5" d="M 299.5,74.5 C 323.5,74.5 347.5,74.5 371.5,74.5C 370.398,76.0919 371.065,76.9252 373.5,77C 372.906,77.4643 372.239,77.631 371.5,77.5C 369.801,77.6602 368.134,77.4935 366.5,77C 367.167,76.6667 367.833,76.3333 368.5,76C 346.833,75.3333 325.167,75.3333 303.5,76C 301.273,76.704 300.94,77.8706 302.5,79.5C 301.337,100.996 301.171,122.663 302,144.5C 302.383,143.944 302.883,143.611 303.5,143.5C 302.748,145.1 301.748,146.6 300.5,148C 323.337,148.168 346.004,148.668 368.5,149.5C 345.5,149.5 322.5,149.5 299.5,149.5C 299.5,124.5 299.5,99.5 299.5,74.5 Z"/></g>
<g><path style="opacity:1" fill="#ddaeb1" d="M 302.5,79.5 C 303.497,100.66 303.831,121.993 303.5,143.5C 302.883,143.611 302.383,143.944 302,144.5C 301.171,122.663 301.337,100.996 302.5,79.5 Z"/></g>
<g><path style="opacity:1" fill="#ddadb5" d="M 373.5,79.5 C 373.5,101.5 373.5,123.5 373.5,145.5C 372.168,134.854 371.501,123.854 371.5,112.5C 371.501,101.146 372.168,90.1458 373.5,79.5 Z"/></g>
<g><path style="opacity:1" fill="#dbafb5" d="M 523.5,74.5 C 523.833,74.5 524.167,74.5 524.5,74.5C 524.5,99.5 524.5,124.5 524.5,149.5C 523.167,149.5 521.833,149.5 520.5,149.5C 521.685,148.143 522.685,146.643 523.5,145C 522.844,122.958 522.177,100.958 521.5,79C 523.037,77.8904 523.703,76.3904 523.5,74.5 Z"/></g>
<g><path style="opacity:1" fill="#e9cbd0" d="M -0.5,149.5 C 23.5,149.5 47.5,149.5 71.5,149.5C 71.8333,149.5 72.1667,149.5 72.5,149.5C 73.4808,174.122 73.8142,198.789 73.5,223.5C 72.209,223.263 71.209,223.596 70.5,224.5C 46.8333,224.5 23.1667,224.5 -0.5,224.5C -0.5,199.5 -0.5,174.5 -0.5,149.5 Z"/></g>
<g><path style="opacity:1" fill="#deadb6" d="M 74.5,150.5 C 74.5,150.167 74.5,149.833 74.5,149.5C 74.8333,149.5 75.1667,149.5 75.5,149.5C 98.1667,149.5 120.833,149.5 143.5,149.5C 121.764,150.172 99.9311,150.838 78,151.5C 77.1774,175.906 77.3441,200.239 78.5,224.5C 77.8333,224.5 77.1667,224.5 76.5,224.5C 75.1713,200 75.1713,175.5 76.5,151C 75.9056,150.536 75.2389,150.369 74.5,150.5 Z"/></g>
<g><path style="opacity:1" fill="#eacad0" d="M 149.5,149.5 C 174.5,149.5 199.5,149.5 224.5,149.5C 224.5,149.833 224.5,150.167 224.5,150.5C 224.5,174.833 224.5,199.167 224.5,223.5C 224.5,223.833 224.5,224.167 224.5,224.5C 199.5,224.5 174.5,224.5 149.5,224.5C 149.5,199.5 149.5,174.5 149.5,149.5 Z"/></g>
<g><path style="opacity:1" fill="#deadb4" d="M 224.5,150.5 C 224.5,150.167 224.5,149.833 224.5,149.5C 249.5,149.5 274.5,149.5 299.5,149.5C 299.5,174.5 299.5,199.5 299.5,224.5C 274.5,224.5 249.5,224.5 224.5,224.5C 224.5,224.167 224.5,223.833 224.5,223.5C 225.843,199.461 227.176,175.294 228.5,151C 227.207,150.51 225.873,150.343 224.5,150.5 Z"/></g>
<g><path style="opacity:1" fill="#e9cbd1" d="M 299.5,149.5 C 322.5,149.5 345.5,149.5 368.5,149.5C 369.833,149.5 371.167,149.5 372.5,149.5C 374.161,174.654 373.827,199.654 371.5,224.5C 347.5,224.5 323.5,224.5 299.5,224.5C 299.5,199.5 299.5,174.5 299.5,149.5 Z"/></g>
<g><path style="opacity:1" fill="#daafb8" d="M 374.5,149.5 C 375.167,149.5 375.833,149.5 376.5,149.5C 375.852,162.123 375.519,174.79 375.5,187.5C 375.501,199.852 376.168,211.852 377.5,223.5C 378.167,223.5 378.5,223.833 378.5,224.5C 378.167,224.5 377.833,224.5 377.5,224.5C 376.5,224.5 375.5,224.5 374.5,224.5C 374.5,199.5 374.5,174.5 374.5,149.5 Z"/></g>
<g><path style="opacity:1" fill="#dfacb5" d="M 376.5,149.5 C 376.833,149.5 377.167,149.5 377.5,149.5C 401.167,149.5 424.833,149.5 448.5,149.5C 425.294,150.176 401.961,150.843 378.5,151.5C 377.5,175.491 377.167,199.491 377.5,223.5C 376.168,211.852 375.501,199.852 375.5,187.5C 375.519,174.79 375.852,162.123 376.5,149.5 Z"/></g>
<g><path style="opacity:1" fill="#eacbd0" d="M 449.5,149.5 C 473.167,149.5 496.833,149.5 520.5,149.5C 521.833,149.5 523.167,149.5 524.5,149.5C 524.5,150.167 524.5,150.833 524.5,151.5C 524.5,175.833 524.5,200.167 524.5,224.5C 499.5,224.5 474.5,224.5 449.5,224.5C 449.5,199.5 449.5,174.5 449.5,149.5 Z"/></g>
<g><path style="opacity:1" fill="#f0c9cf" d="M 72.5,149.5 C 73.1667,149.5 73.8333,149.5 74.5,149.5C 74.5,149.833 74.5,150.167 74.5,150.5C 74.5,175.167 74.5,199.833 74.5,224.5C 73.1667,224.5 71.8333,224.5 70.5,224.5C 71.209,223.596 72.209,223.263 73.5,223.5C 73.8142,198.789 73.4808,174.122 72.5,149.5 Z"/></g>
<g><path style="opacity:1" fill="#deadb4" d="M 143.5,149.5 C 145.5,149.5 147.5,149.5 149.5,149.5C 149.5,174.5 149.5,199.5 149.5,224.5C 125.833,224.5 102.167,224.5 78.5,224.5C 77.3441,200.239 77.1774,175.906 78,151.5C 99.9311,150.838 121.764,150.172 143.5,149.5 Z"/></g>
<g><path style="opacity:1" fill="#eec9d0" d="M 372.5,149.5 C 372.833,149.5 373.167,149.5 373.5,149.5C 373.833,149.5 374.167,149.5 374.5,149.5C 374.5,174.5 374.5,199.5 374.5,224.5C 373.5,224.5 372.5,224.5 371.5,224.5C 373.827,199.654 374.161,174.654 372.5,149.5 Z"/></g>
<g><path style="opacity:1" fill="#deaeb3" d="M 448.5,149.5 C 448.833,149.5 449.167,149.5 449.5,149.5C 449.5,174.5 449.5,199.5 449.5,224.5C 425.833,224.5 402.167,224.5 378.5,224.5C 378.5,223.833 378.167,223.5 377.5,223.5C 377.167,199.491 377.5,175.491 378.5,151.5C 401.961,150.843 425.294,150.176 448.5,149.5 Z"/></g>
<g><path style="opacity:1" fill="#dfadb4" d="M 524.5,149.5 C 549.5,149.5 574.5,149.5 599.5,149.5C 599.5,174.5 599.5,199.5 599.5,224.5C 575.5,224.5 551.5,224.5 527.5,224.5C 527.179,199.885 526.179,175.551 524.5,151.5C 524.5,150.833 524.5,150.167 524.5,149.5 Z"/></g>
<g><path style="opacity:1" fill="#dbafb6" d="M 74.5,150.5 C 75.2389,150.369 75.9056,150.536 76.5,151C 75.1713,175.5 75.1713,200 76.5,224.5C 75.8333,224.5 75.1667,224.5 74.5,224.5C 74.5,199.833 74.5,175.167 74.5,150.5 Z"/></g>
<g><path style="opacity:1" fill="#daafb3" d="M 224.5,150.5 C 225.873,150.343 227.207,150.51 228.5,151C 227.176,175.294 225.843,199.461 224.5,223.5C 224.5,199.167 224.5,174.833 224.5,150.5 Z"/></g>
<g><path style="opacity:1" fill="#dbafb5" d="M 524.5,151.5 C 526.179,175.551 527.179,199.885 527.5,224.5C 526.5,224.5 525.5,224.5 524.5,224.5C 524.5,200.167 524.5,175.833 524.5,151.5 Z"/></g>
<g><path style="opacity:1" fill="#e9cbd0" d="M 74.5,224.5 C 75.1667,224.5 75.8333,224.5 76.5,224.5C 77.1667,224.5 77.8333,224.5 78.5,224.5C 102.167,224.5 125.833,224.5 149.5,224.5C 149.5,249.5 149.5,274.5 149.5,299.5C 124.5,299.5 99.5,299.5 74.5,299.5C 74.5,299.167 74.5,298.833 74.5,298.5C 77.5239,298.053 77.8572,297.22 75.5,296C 76.1667,274.333 76.8333,252.667 77.5,231C 74.5845,228.929 74.9178,227.595 78.5,227C 77.2068,226.51 75.8734,226.343 74.5,226.5C 74.5,225.833 74.5,225.167 74.5,224.5 Z"/></g>
<g><path style="opacity:1" fill="#deadb4" d="M 149.5,224.5 C 174.5,224.5 199.5,224.5 224.5,224.5C 224.5,225.167 224.5,225.833 224.5,226.5C 224.5,250.5 224.5,274.5 224.5,298.5C 224.5,298.833 224.5,299.167 224.5,299.5C 199.5,299.5 174.5,299.5 149.5,299.5C 149.5,274.5 149.5,249.5 149.5,224.5 Z"/></g>
<g><path style="opacity:1" fill="#eacbd1" d="M 224.5,224.5 C 249.5,224.5 274.5,224.5 299.5,224.5C 299.5,249.5 299.5,274.5 299.5,299.5C 274.5,299.5 249.5,299.5 224.5,299.5C 224.5,299.167 224.5,298.833 224.5,298.5C 225.222,298.082 225.722,297.416 226,296.5C 226.556,298.595 227.056,298.762 227.5,297C 226.198,285.452 225.531,273.786 225.5,262C 225.51,250.456 225.843,238.956 226.5,227.5C 226.043,226.702 225.376,226.369 224.5,226.5C 224.5,225.833 224.5,225.167 224.5,224.5 Z"/></g>
<g><path style="opacity:1" fill="#deadb4" d="M 299.5,224.5 C 323.5,224.5 347.5,224.5 371.5,224.5C 371.119,225.931 370.119,226.764 368.5,227C 370.246,227.471 371.913,228.138 373.5,229C 372.692,229.308 372.025,229.808 371.5,230.5C 372.811,241.342 373.478,252.342 373.5,263.5C 373.333,274.167 373.167,284.833 373,295.5C 372.626,296.416 372.126,297.25 371.5,298C 372.416,298.278 373.082,298.778 373.5,299.5C 373.167,299.5 372.833,299.5 372.5,299.5C 348.167,299.5 323.833,299.5 299.5,299.5C 299.5,274.5 299.5,249.5 299.5,224.5 Z"/></g>
<g><path style="opacity:1" fill="#eacbd1" d="M 377.5,224.5 C 377.833,224.5 378.167,224.5 378.5,224.5C 402.167,224.5 425.833,224.5 449.5,224.5C 449.5,249.5 449.5,274.5 449.5,299.5C 425.167,299.5 400.833,299.5 376.5,299.5C 375.353,275.209 375.186,250.876 376,226.5C 376.717,225.956 377.217,225.289 377.5,224.5 Z"/></g>
<g><path style="opacity:1" fill="#deadb4" d="M 449.5,224.5 C 474.5,224.5 499.5,224.5 524.5,224.5C 524.5,226.167 524.5,227.833 524.5,229.5C 523.168,240.146 522.501,251.146 522.5,262.5C 522.859,274.344 522.859,286.011 522.5,297.5C 522.957,298.298 523.624,298.631 524.5,298.5C 524.5,298.833 524.5,299.167 524.5,299.5C 499.5,299.5 474.5,299.5 449.5,299.5C 449.5,274.5 449.5,249.5 449.5,224.5 Z"/></g>
<g><path style="opacity:1" fill="#eacad0" d="M 524.5,224.5 C 525.5,224.5 526.5,224.5 527.5,224.5C 551.5,224.5 575.5,224.5 599.5,224.5C 599.5,249.5 599.5,274.5 599.5,299.5C 574.5,299.5 549.5,299.5 524.5,299.5C 524.5,299.167 524.5,298.833 524.5,298.5C 524.5,275.5 524.5,252.5 524.5,229.5C 524.5,227.833 524.5,226.167 524.5,224.5 Z"/></g>
<g><path style="opacity:1" fill="#deadb4" d="M -0.5,224.5 C 23.1667,224.5 46.8333,224.5 70.5,224.5C 71.8333,224.5 73.1667,224.5 74.5,224.5C 74.5,225.167 74.5,225.833 74.5,226.5C 74.5,226.833 74.5,227.167 74.5,227.5C 72.5337,228.255 72.2004,229.421 73.5,231C 72.1783,241.774 71.5116,252.774 71.5,264C 71.6667,274.833 71.8333,285.667 72,296.5C 72.6708,297.252 73.5041,297.586 74.5,297.5C 74.5,297.833 74.5,298.167 74.5,298.5C 74.5,298.833 74.5,299.167 74.5,299.5C 73.5,299.5 72.5,299.5 71.5,299.5C 47.5,299.5 23.5,299.5 -0.5,299.5C -0.5,274.5 -0.5,249.5 -0.5,224.5 Z"/></g>
<g><path style="opacity:1" fill="#efc8d0" d="M 74.5,226.5 C 75.8734,226.343 77.2068,226.51 78.5,227C 74.9178,227.595 74.5845,228.929 77.5,231C 76.8333,252.667 76.1667,274.333 75.5,296C 77.8572,297.22 77.5239,298.053 74.5,298.5C 74.5,298.167 74.5,297.833 74.5,297.5C 74.5,274.167 74.5,250.833 74.5,227.5C 74.5,227.167 74.5,226.833 74.5,226.5 Z"/></g>
<g><path style="opacity:1" fill="#efc8d0" d="M 374.5,224.5 C 375.5,224.5 376.5,224.5 377.5,224.5C 377.217,225.289 376.717,225.956 376,226.5C 375.186,250.876 375.353,275.209 376.5,299.5C 375.833,299.5 375.167,299.5 374.5,299.5C 374.5,274.5 374.5,249.5 374.5,224.5 Z"/></g>
<g><path style="opacity:1" fill="#dcaeb6" d="M 74.5,227.5 C 74.5,250.833 74.5,274.167 74.5,297.5C 73.5041,297.586 72.6708,297.252 72,296.5C 71.8333,285.667 71.6667,274.833 71.5,264C 71.5116,252.774 72.1783,241.774 73.5,231C 72.2004,229.421 72.5337,228.255 74.5,227.5 Z"/></g>
<g><path style="opacity:1" fill="#edc9cd" d="M 224.5,226.5 C 225.376,226.369 226.043,226.702 226.5,227.5C 225.843,238.956 225.51,250.456 225.5,262C 225.531,273.786 226.198,285.452 227.5,297C 227.056,298.762 226.556,298.595 226,296.5C 225.722,297.416 225.222,298.082 224.5,298.5C 224.5,274.5 224.5,250.5 224.5,226.5 Z"/></g>
<g><path style="opacity:1" fill="#d9aeb7" d="M 371.5,224.5 C 372.5,224.5 373.5,224.5 374.5,224.5C 374.5,249.5 374.5,274.5 374.5,299.5C 374.167,299.5 373.833,299.5 373.5,299.5C 373.082,298.778 372.416,298.278 371.5,298C 372.126,297.25 372.626,296.416 373,295.5C 373.167,284.833 373.333,274.167 373.5,263.5C 373.478,252.342 372.811,241.342 371.5,230.5C 372.025,229.808 372.692,229.308 373.5,229C 371.913,228.138 370.246,227.471 368.5,227C 370.119,226.764 371.119,225.931 371.5,224.5 Z"/></g>
<g><path style="opacity:1" fill="#dbafb5" d="M 524.5,229.5 C 524.5,252.5 524.5,275.5 524.5,298.5C 523.624,298.631 522.957,298.298 522.5,297.5C 522.859,286.011 522.859,274.344 522.5,262.5C 522.501,251.146 523.168,240.146 524.5,229.5 Z"/></g>
<g><path style="opacity:1" fill="#eacbd0" d="M -0.5,299.5 C 23.5,299.5 47.5,299.5 71.5,299.5C 72.0906,300.151 72.7573,300.818 73.5,301.5C 73.8253,324.506 73.4919,347.339 72.5,370C 73.0442,370.717 73.7109,371.217 74.5,371.5C 74.5,372.5 74.5,373.5 74.5,374.5C 70.8333,374.5 67.1667,374.5 63.5,374.5C 42.1667,374.5 20.8333,374.5 -0.5,374.5C -0.5,349.5 -0.5,324.5 -0.5,299.5 Z"/></g>
<g><path style="opacity:1" fill="#eacbd0" d="M 149.5,299.5 C 174.5,299.5 199.5,299.5 224.5,299.5C 224.5,299.833 224.5,300.167 224.5,300.5C 224.5,323.5 224.5,346.5 224.5,369.5C 224.5,371.167 224.5,372.833 224.5,374.5C 199.5,374.5 174.5,374.5 149.5,374.5C 149.5,349.5 149.5,324.5 149.5,299.5 Z"/></g>
<g><path style="opacity:1" fill="#deadb4" d="M 224.5,300.5 C 224.5,300.167 224.5,299.833 224.5,299.5C 249.5,299.5 274.5,299.5 299.5,299.5C 299.5,324.5 299.5,349.5 299.5,374.5C 274.5,374.5 249.5,374.5 224.5,374.5C 224.5,372.833 224.5,371.167 224.5,369.5C 225.832,358.353 226.499,346.853 226.5,335C 226.499,323.147 225.832,311.647 224.5,300.5 Z"/></g>
<g><path style="opacity:1" fill="#e9cbd1" d="M 299.5,299.5 C 323.833,299.5 348.167,299.5 372.5,299.5C 373.811,323.58 373.811,347.747 372.5,372C 373.094,372.464 373.761,372.631 374.5,372.5C 374.5,373.167 374.5,373.833 374.5,374.5C 373.5,374.5 372.5,374.5 371.5,374.5C 348.167,374.5 324.833,374.5 301.5,374.5C 300.833,374.5 300.167,374.5 299.5,374.5C 299.5,349.5 299.5,324.5 299.5,299.5 Z"/></g>
<g><path style="opacity:1" fill="#e9cbd1" d="M 449.5,299.5 C 474.5,299.5 499.5,299.5 524.5,299.5C 524.5,299.833 524.5,300.167 524.5,300.5C 521.664,300.202 521.164,300.869 523,302.5C 523.167,313.5 523.333,324.5 523.5,335.5C 523.464,347.974 523.13,360.141 522.5,372C 522.836,373.03 523.503,373.53 524.5,373.5C 524.5,373.833 524.5,374.167 524.5,374.5C 523.5,374.5 522.5,374.5 521.5,374.5C 518.167,374.5 514.833,374.5 511.5,374.5C 495.5,374.5 479.5,374.5 463.5,374.5C 458.833,374.5 454.167,374.5 449.5,374.5C 449.5,349.5 449.5,324.5 449.5,299.5 Z"/></g>
<g><path style="opacity:1" fill="#deadb4" d="M 376.5,299.5 C 400.833,299.5 425.167,299.5 449.5,299.5C 449.5,324.5 449.5,349.5 449.5,374.5C 448.833,374.5 448.167,374.5 447.5,374.5C 424.5,374.5 401.5,374.5 378.5,374.5C 377.833,374.5 377.167,374.5 376.5,374.5C 376.557,373.391 376.89,372.391 377.5,371.5C 377.36,369.876 378.027,368.71 379.5,368C 378.177,346.372 376.844,324.872 375.5,303.5C 376.234,302.292 376.567,300.959 376.5,299.5 Z"/></g>
<g><path style="opacity:1" fill="#dfaeb4" d="M 524.5,299.5 C 549.5,299.5 574.5,299.5 599.5,299.5C 599.5,324.5 599.5,349.5 599.5,374.5C 574.5,374.5 549.5,374.5 524.5,374.5C 524.5,374.167 524.5,373.833 524.5,373.5C 524.5,372.833 524.5,372.167 524.5,371.5C 525.837,370.685 526.837,369.518 527.5,368C 527.172,345.883 526.172,324.05 524.5,302.5C 524.5,301.833 524.5,301.167 524.5,300.5C 524.5,300.167 524.5,299.833 524.5,299.5 Z"/></g>
<g><path style="opacity:1" fill="#deadb4" d="M 74.5,300.5 C 74.5,300.167 74.5,299.833 74.5,299.5C 99.5,299.5 124.5,299.5 149.5,299.5C 149.5,324.5 149.5,349.5 149.5,374.5C 125.167,374.5 100.833,374.5 76.5,374.5C 76.5774,373.25 77.244,372.417 78.5,372C 77.4844,371.481 76.8178,370.647 76.5,369.5C 77.6453,347.524 77.812,325.524 77,303.5C 76.7645,301.881 75.9311,300.881 74.5,300.5 Z"/></g>
<g><path style="opacity:1" fill="#d9afb7" d="M 374.5,299.5 C 375.167,299.5 375.833,299.5 376.5,299.5C 376.567,300.959 376.234,302.292 375.5,303.5C 375.333,324.836 375.5,346.169 376,367.5C 376.21,369.058 376.71,370.391 377.5,371.5C 376.89,372.391 376.557,373.391 376.5,374.5C 375.833,374.5 375.167,374.5 374.5,374.5C 374.5,373.833 374.5,373.167 374.5,372.5C 374.5,348.167 374.5,323.833 374.5,299.5 Z"/></g>
<g><path style="opacity:1" fill="#f0c9cf" d="M 71.5,299.5 C 72.5,299.5 73.5,299.5 74.5,299.5C 74.5,299.833 74.5,300.167 74.5,300.5C 74.5,324.167 74.5,347.833 74.5,371.5C 73.7109,371.217 73.0442,370.717 72.5,370C 73.4919,347.339 73.8253,324.506 73.5,301.5C 72.7573,300.818 72.0906,300.151 71.5,299.5 Z"/></g>
<g><path style="opacity:1" fill="#ddadb5" d="M 74.5,300.5 C 75.9311,300.881 76.7645,301.881 77,303.5C 77.812,325.524 77.6453,347.524 76.5,369.5C 76.8178,370.647 77.4844,371.481 78.5,372C 77.244,372.417 76.5774,373.25 76.5,374.5C 76.1667,374.5 75.8333,374.5 75.5,374.5C 75.1667,374.5 74.8333,374.5 74.5,374.5C 74.5,373.5 74.5,372.5 74.5,371.5C 74.5,347.833 74.5,324.167 74.5,300.5 Z"/></g>
<g><path style="opacity:1" fill="#daafb3" d="M 224.5,300.5 C 225.832,311.647 226.499,323.147 226.5,335C 226.499,346.853 225.832,358.353 224.5,369.5C 224.5,346.5 224.5,323.5 224.5,300.5 Z"/></g>
<g><path style="opacity:1" fill="#eec9d0" d="M 372.5,299.5 C 372.833,299.5 373.167,299.5 373.5,299.5C 373.833,299.5 374.167,299.5 374.5,299.5C 374.5,323.833 374.5,348.167 374.5,372.5C 373.761,372.631 373.094,372.464 372.5,372C 373.811,347.747 373.811,323.58 372.5,299.5 Z"/></g>
<g><path style="opacity:1" fill="#dfadb5" d="M 375.5,303.5 C 376.844,324.872 378.177,346.372 379.5,368C 378.027,368.71 377.36,369.876 377.5,371.5C 376.71,370.391 376.21,369.058 376,367.5C 375.5,346.169 375.333,324.836 375.5,303.5 Z"/></g>
<g><path style="opacity:1" fill="#edc9ce" d="M 524.5,300.5 C 524.5,301.167 524.5,301.833 524.5,302.5C 524.5,325.5 524.5,348.5 524.5,371.5C 524.5,372.167 524.5,372.833 524.5,373.5C 523.503,373.53 522.836,373.03 522.5,372C 523.13,360.141 523.464,347.974 523.5,335.5C 523.333,324.5 523.167,313.5 523,302.5C 521.164,300.869 521.664,300.202 524.5,300.5 Z"/></g>
<g><path style="opacity:1" fill="#dbafb5" d="M 524.5,302.5 C 526.172,324.05 527.172,345.883 527.5,368C 526.837,369.518 525.837,370.685 524.5,371.5C 524.5,348.5 524.5,325.5 524.5,302.5 Z"/></g>
<g><path style="opacity:1" fill="#dfadb4" d="M -0.5,374.5 C 20.8333,374.5 42.1667,374.5 63.5,374.5C 65.9479,375.473 68.6146,375.806 71.5,375.5C 71.5,400.167 71.5,424.833 71.5,449.5C 47.5,449.5 23.5,449.5 -0.5,449.5C -0.5,424.5 -0.5,399.5 -0.5,374.5 Z"/></g>
<g><path style="opacity:1" fill="#e9cbd0" d="M 75.5,374.5 C 75.8333,374.5 76.1667,374.5 76.5,374.5C 100.833,374.5 125.167,374.5 149.5,374.5C 149.5,399.5 149.5,424.5 149.5,449.5C 125.167,449.5 100.833,449.5 76.5,449.5C 75.8333,449.5 75.1667,449.5 74.5,449.5C 74.5,449.167 74.5,448.833 74.5,448.5C 75.8324,436.686 76.4991,424.519 76.5,412C 76.4907,399.427 76.1574,386.927 75.5,374.5 Z"/></g>
<g><path style="opacity:1" fill="#deaeb4" d="M 149.5,374.5 C 174.5,374.5 199.5,374.5 224.5,374.5C 224.5,374.833 224.5,375.167 224.5,375.5C 224.5,399.833 224.5,424.167 224.5,448.5C 224.5,448.833 224.5,449.167 224.5,449.5C 199.5,449.5 174.5,449.5 149.5,449.5C 149.5,424.5 149.5,399.5 149.5,374.5 Z"/></g>
<g><path style="opacity:1" fill="#e9cbd1" d="M 224.5,375.5 C 224.5,375.167 224.5,374.833 224.5,374.5C 249.5,374.5 274.5,374.5 299.5,374.5C 299.5,399.5 299.5,424.5 299.5,449.5C 274.833,449.5 250.167,449.5 225.5,449.5C 225.167,449.5 224.833,449.5 224.5,449.5C 224.5,449.167 224.5,448.833 224.5,448.5C 225.239,448.631 225.906,448.464 226.5,448C 225.838,423.736 225.171,399.569 224.5,375.5 Z"/></g>
<g><path style="opacity:1" fill="#dfadb5" d="M 299.5,374.5 C 300.167,374.5 300.833,374.5 301.5,374.5C 301.5,399.167 301.5,423.833 301.5,448.5C 325.006,448.169 348.339,448.502 371.5,449.5C 370.833,449.5 370.167,449.5 369.5,449.5C 347.833,449.5 326.167,449.5 304.5,449.5C 302.833,449.5 301.167,449.5 299.5,449.5C 299.5,424.5 299.5,399.5 299.5,374.5 Z"/></g>
<g><path style="opacity:1" fill="#deaeb3" d="M 301.5,374.5 C 324.833,374.5 348.167,374.5 371.5,374.5C 371.5,374.833 371.5,375.167 371.5,375.5C 370.843,399.857 371.51,423.857 373.5,447.5C 373.5,448.167 373.5,448.833 373.5,449.5C 372.833,449.5 372.167,449.5 371.5,449.5C 348.339,448.502 325.006,448.169 301.5,448.5C 301.5,423.833 301.5,399.167 301.5,374.5 Z"/></g>
<g><path style="opacity:1" fill="#eacbd1" d="M 378.5,374.5 C 401.5,374.5 424.5,374.5 447.5,374.5C 448.157,398.931 448.824,423.264 449.5,447.5C 449.5,448.167 449.5,448.833 449.5,449.5C 425.167,449.5 400.833,449.5 376.5,449.5C 376.611,448.883 376.944,448.383 377.5,448C 375.516,424.062 374.849,399.896 375.5,375.5C 376.791,375.737 377.791,375.404 378.5,374.5 Z"/></g>
<g><path style="opacity:1" fill="#dfadb3" d="M 463.5,374.5 C 479.5,374.5 495.5,374.5 511.5,374.5C 512.568,375.434 513.901,375.768 515.5,375.5C 516.167,471.5 516.833,471.5 517.5,375.5C 518.833,375.5 520.167,375.5 521.5,375.5C 522.663,399.33 522.83,423.33 522,447.5C 518.397,448.135 514.897,448.802 511.5,449.5C 492.167,449.5 472.833,449.5 453.5,449.5C 453.5,424.833 453.5,400.167 453.5,375.5C 454.833,375.5 456.167,375.5 457.5,375.5C 458.167,471.5 458.833,471.5 459.5,375.5C 461.099,375.768 462.432,375.434 463.5,374.5 Z"/></g>
<g><path style="opacity:1" fill="#eacad0" d="M 524.5,374.5 C 549.5,374.5 574.5,374.5 599.5,374.5C 599.5,399.5 599.5,424.5 599.5,449.5C 574.5,449.5 549.5,449.5 524.5,449.5C 524.5,424.5 524.5,399.5 524.5,374.5 Z"/></g>
<g><path style="opacity:1" fill="#dcaeb6" d="M 63.5,374.5 C 67.1667,374.5 70.8333,374.5 74.5,374.5C 74.5,399.167 74.5,423.833 74.5,448.5C 74.5,448.833 74.5,449.167 74.5,449.5C 73.8333,449.5 73.1667,449.5 72.5,449.5C 72.1667,449.5 71.8333,449.5 71.5,449.5C 71.5,424.833 71.5,400.167 71.5,375.5C 68.6146,375.806 65.9479,375.473 63.5,374.5 Z"/></g>
<g><path style="opacity:1" fill="#efc8cf" d="M 74.5,374.5 C 74.8333,374.5 75.1667,374.5 75.5,374.5C 76.1574,386.927 76.4907,399.427 76.5,412C 76.4991,424.519 75.8324,436.686 74.5,448.5C 74.5,423.833 74.5,399.167 74.5,374.5 Z"/></g>
<g><path style="opacity:1" fill="#edc9cd" d="M 224.5,375.5 C 225.171,399.569 225.838,423.736 226.5,448C 225.906,448.464 225.239,448.631 224.5,448.5C 224.5,424.167 224.5,399.833 224.5,375.5 Z"/></g>
<g><path style="opacity:1" fill="#deadb5" d="M 371.5,375.5 C 373.49,399.143 374.157,423.143 373.5,447.5C 371.51,423.857 370.843,399.857 371.5,375.5 Z"/></g>
<g><path style="opacity:1" fill="#d9aeb7" d="M 371.5,375.5 C 371.5,375.167 371.5,374.833 371.5,374.5C 372.5,374.5 373.5,374.5 374.5,374.5C 374.5,399.5 374.5,424.5 374.5,449.5C 374.167,449.5 373.833,449.5 373.5,449.5C 373.5,448.833 373.5,448.167 373.5,447.5C 374.157,423.143 373.49,399.143 371.5,375.5 Z"/></g>
<g><path style="opacity:1" fill="#efc7cf" d="M 374.5,374.5 C 375.167,374.5 375.833,374.5 376.5,374.5C 377.167,374.5 377.833,374.5 378.5,374.5C 377.791,375.404 376.791,375.737 375.5,375.5C 374.849,399.896 375.516,424.062 377.5,448C 376.944,448.383 376.611,448.883 376.5,449.5C 375.833,449.5 375.167,449.5 374.5,449.5C 374.5,424.5 374.5,399.5 374.5,374.5 Z"/></g>
<g><path style="opacity:1" fill="#efc9d1" d="M 447.5,374.5 C 448.167,374.5 448.833,374.5 449.5,374.5C 449.5,398.833 449.5,423.167 449.5,447.5C 448.824,423.264 448.157,398.931 447.5,374.5 Z"/></g>
<g><path style="opacity:1" fill="#deadb5" d="M 449.5,374.5 C 454.167,374.5 458.833,374.5 463.5,374.5C 462.432,375.434 461.099,375.768 459.5,375.5C 458.833,471.5 458.167,471.5 457.5,375.5C 456.167,375.5 454.833,375.5 453.5,375.5C 453.5,400.167 453.5,424.833 453.5,449.5C 452.167,449.5 450.833,449.5 449.5,449.5C 449.5,448.833 449.5,448.167 449.5,447.5C 449.5,423.167 449.5,398.833 449.5,374.5 Z"/></g>
<g><path style="opacity:1" fill="#ddadb5" d="M 511.5,374.5 C 514.833,374.5 518.167,374.5 521.5,374.5C 521.5,374.833 521.5,375.167 521.5,375.5C 520.167,375.5 518.833,375.5 517.5,375.5C 516.833,471.5 516.167,471.5 515.5,375.5C 513.901,375.768 512.568,375.434 511.5,374.5 Z"/></g>
<g><path style="opacity:1" fill="#dab0b6" d="M 521.5,375.5 C 521.5,375.167 521.5,374.833 521.5,374.5C 522.5,374.5 523.5,374.5 524.5,374.5C 524.5,399.5 524.5,424.5 524.5,449.5C 523.5,449.5 522.5,449.5 521.5,449.5C 518.167,449.5 514.833,449.5 511.5,449.5C 514.897,448.802 518.397,448.135 522,447.5C 522.83,423.33 522.663,399.33 521.5,375.5 Z"/></g>
<g><path style="opacity:1" fill="#e9cbd0" d="M -0.5,449.5 C 23.5,449.5 47.5,449.5 71.5,449.5C 71.8333,449.5 72.1667,449.5 72.5,449.5C 73.832,474.79 73.832,499.79 72.5,524.5C 69.8333,524.5 67.1667,524.5 64.5,524.5C 42.8333,524.5 21.1667,524.5 -0.5,524.5C -0.5,499.5 -0.5,474.5 -0.5,449.5 Z"/></g>
<g><path style="opacity:1" fill="#eacbd0" d="M 149.5,449.5 C 174.5,449.5 199.5,449.5 224.5,449.5C 224.5,474.5 224.5,499.5 224.5,524.5C 224.167,524.5 223.833,524.5 223.5,524.5C 200.167,524.5 176.833,524.5 153.5,524.5C 152.167,524.5 150.833,524.5 149.5,524.5C 149.5,499.5 149.5,474.5 149.5,449.5 Z"/></g>
<g><path style="opacity:1" fill="#deadb4" d="M 225.5,449.5 C 250.167,449.5 274.833,449.5 299.5,449.5C 299.5,474.5 299.5,499.5 299.5,524.5C 274.833,524.5 250.167,524.5 225.5,524.5C 225.918,523.778 226.584,523.278 227.5,523C 226.854,499.943 226.187,476.609 225.5,453C 226.833,452.667 228.167,452.333 229.5,452C 227.563,451.878 226.23,451.045 225.5,449.5 Z"/></g>
<g><path style="opacity:1" fill="#e9cbd1" d="M 299.5,449.5 C 301.167,449.5 302.833,449.5 304.5,449.5C 325.706,450.177 347.039,450.844 368.5,451.5C 369.298,451.043 369.631,450.376 369.5,449.5C 370.167,449.5 370.833,449.5 371.5,449.5C 372.167,449.5 372.833,449.5 373.5,449.5C 373.833,449.5 374.167,449.5 374.5,449.5C 374.5,451.167 374.5,452.833 374.5,454.5C 373.668,475.996 373.168,497.663 373,519.5C 372.5,520 372,520.5 371.5,521C 372.337,522.011 372.67,523.178 372.5,524.5C 349.5,524.5 326.5,524.5 303.5,524.5C 302.167,524.5 300.833,524.5 299.5,524.5C 299.5,499.5 299.5,474.5 299.5,449.5 Z"/></g>
<g><path style="opacity:1" fill="#e7ccd0" d="M 304.5,449.5 C 326.167,449.5 347.833,449.5 369.5,449.5C 369.631,450.376 369.298,451.043 368.5,451.5C 347.039,450.844 325.706,450.177 304.5,449.5 Z"/></g>
<g><path style="opacity:1" fill="#deadb3" d="M 376.5,450.5 C 376.5,450.167 376.5,449.833 376.5,449.5C 400.833,449.5 425.167,449.5 449.5,449.5C 449.5,474.5 449.5,499.5 449.5,524.5C 425.833,524.5 402.167,524.5 378.5,524.5C 377.047,523.151 376.047,521.485 375.5,519.5C 377.161,498.516 378.161,477.182 378.5,455.5C 379.354,454.478 380.354,453.645 381.5,453C 380.833,452.667 380.167,452.333 379.5,452C 380.833,451.667 382.167,451.333 383.5,451C 381.19,450.503 378.857,450.337 376.5,450.5 Z"/></g>
<g><path style="opacity:1" fill="#e9cbd0" d="M 449.5,449.5 C 450.833,449.5 452.167,449.5 453.5,449.5C 472.833,449.5 492.167,449.5 511.5,449.5C 514.833,449.5 518.167,449.5 521.5,449.5C 521.783,450.289 522.283,450.956 523,451.5C 523.804,475.53 523.637,499.53 522.5,523.5C 521.209,523.263 520.209,523.596 519.5,524.5C 516.833,524.5 514.167,524.5 511.5,524.5C 490.833,524.5 470.167,524.5 449.5,524.5C 449.5,499.5 449.5,474.5 449.5,449.5 Z"/></g>
<g><path style="opacity:1" fill="#f0c9cf" d="M 72.5,449.5 C 73.1667,449.5 73.8333,449.5 74.5,449.5C 74.5,474.5 74.5,499.5 74.5,524.5C 73.8333,524.5 73.1667,524.5 72.5,524.5C 73.832,499.79 73.832,474.79 72.5,449.5 Z"/></g>
<g><path style="opacity:1" fill="#dfacb5" d="M 376.5,450.5 C 378.857,450.337 381.19,450.503 383.5,451C 382.167,451.333 380.833,451.667 379.5,452C 380.167,452.333 380.833,452.667 381.5,453C 380.354,453.645 379.354,454.478 378.5,455.5C 378.161,477.182 377.161,498.516 375.5,519.5C 375.187,496.455 375.521,473.455 376.5,450.5 Z"/></g>
<g><path style="opacity:1" fill="#deadb4" d="M 76.5,449.5 C 100.833,449.5 125.167,449.5 149.5,449.5C 149.5,474.5 149.5,499.5 149.5,524.5C 148.833,524.5 148.167,524.5 147.5,524.5C 123.916,523.98 100.249,523.147 76.5,522C 77.5,521.667 78.5,521.333 79.5,521C 77.6825,499.395 76.8492,477.562 77,455.5C 75.5585,453.695 75.3918,451.695 76.5,449.5 Z"/></g>
<g><path style="opacity:1" fill="#dfadb4" d="M 524.5,449.5 C 549.5,449.5 574.5,449.5 599.5,449.5C 599.5,474.5 599.5,499.5 599.5,524.5C 575.5,524.5 551.5,524.5 527.5,524.5C 527.19,501.187 526.19,478.187 524.5,455.5C 524.5,453.5 524.5,451.5 524.5,449.5 Z"/></g>
<g><path style="opacity:1" fill="#daafb7" d="M 374.5,449.5 C 375.167,449.5 375.833,449.5 376.5,449.5C 376.5,449.833 376.5,450.167 376.5,450.5C 375.521,473.455 375.187,496.455 375.5,519.5C 376.047,521.485 377.047,523.151 378.5,524.5C 377.833,524.5 377.167,524.5 376.5,524.5C 375.833,524.5 375.167,524.5 374.5,524.5C 374.5,501.167 374.5,477.833 374.5,454.5C 374.5,452.833 374.5,451.167 374.5,449.5 Z"/></g>
<g><path style="opacity:1" fill="#ddadb5" d="M 74.5,449.5 C 75.1667,449.5 75.8333,449.5 76.5,449.5C 75.3918,451.695 75.5585,453.695 77,455.5C 76.8492,477.562 77.6825,499.395 79.5,521C 78.5,521.333 77.5,521.667 76.5,522C 100.249,523.147 123.916,523.98 147.5,524.5C 123.167,524.5 98.8333,524.5 74.5,524.5C 74.5,499.5 74.5,474.5 74.5,449.5 Z"/></g>
<g><path style="opacity:1" fill="#daafb3" d="M 224.5,449.5 C 224.833,449.5 225.167,449.5 225.5,449.5C 226.23,451.045 227.563,451.878 229.5,452C 228.167,452.333 226.833,452.667 225.5,453C 226.187,476.609 226.854,499.943 227.5,523C 226.584,523.278 225.918,523.778 225.5,524.5C 225.167,524.5 224.833,524.5 224.5,524.5C 224.5,499.5 224.5,474.5 224.5,449.5 Z"/></g>
<g><path style="opacity:1" fill="#eec9d0" d="M 374.5,454.5 C 374.5,477.833 374.5,501.167 374.5,524.5C 373.833,524.5 373.167,524.5 372.5,524.5C 372.67,523.178 372.337,522.011 371.5,521C 372,520.5 372.5,520 373,519.5C 373.168,497.663 373.668,475.996 374.5,454.5 Z"/></g>
<g><path style="opacity:1" fill="#edc9ce" d="M 521.5,449.5 C 522.5,449.5 523.5,449.5 524.5,449.5C 524.5,451.5 524.5,453.5 524.5,455.5C 524.5,478.5 524.5,501.5 524.5,524.5C 524.167,524.5 523.833,524.5 523.5,524.5C 522.167,524.5 520.833,524.5 519.5,524.5C 520.209,523.596 521.209,523.263 522.5,523.5C 523.637,499.53 523.804,475.53 523,451.5C 522.283,450.956 521.783,450.289 521.5,449.5 Z"/></g>
<g><path style="opacity:1" fill="#dbafb5" d="M 524.5,455.5 C 526.19,478.187 527.19,501.187 527.5,524.5C 526.5,524.5 525.5,524.5 524.5,524.5C 524.5,501.5 524.5,478.5 524.5,455.5 Z"/></g>
<g><path style="opacity:1" fill="#e9cbd0" d="M 74.5,524.5 C 98.8333,524.5 123.167,524.5 147.5,524.5C 148.167,524.5 148.833,524.5 149.5,524.5C 149.5,549.5 149.5,574.5 149.5,599.5C 125.167,599.5 100.833,599.5 76.5,599.5C 77.157,574.81 76.4903,550.477 74.5,526.5C 74.5,525.833 74.5,525.167 74.5,524.5 Z"/></g>
<g><path style="opacity:1" fill="#e9cbd1" d="M 224.5,525.5 C 224.5,525.167 224.5,524.833 224.5,524.5C 224.833,524.5 225.167,524.5 225.5,524.5C 250.167,524.5 274.833,524.5 299.5,524.5C 299.5,549.5 299.5,574.5 299.5,599.5C 274.833,599.5 250.167,599.5 225.5,599.5C 225.172,575.259 225.506,551.092 226.5,527C 225.956,526.283 225.289,525.783 224.5,525.5 Z"/></g>
<g><path style="opacity:1" fill="#deadb3" d="M 299.5,524.5 C 300.833,524.5 302.167,524.5 303.5,524.5C 325.372,525.177 347.372,525.844 369.5,526.5C 370.086,526.291 370.586,525.957 371,525.5C 371.5,550.164 371.667,574.831 371.5,599.5C 348.833,599.5 326.167,599.5 303.5,599.5C 302.833,503.5 302.167,503.5 301.5,599.5C 300.833,599.5 300.167,599.5 299.5,599.5C 299.5,574.5 299.5,549.5 299.5,524.5 Z"/></g>
<g><path style="opacity:1" fill="#eacbd0" d="M 376.5,524.5 C 377.167,524.5 377.833,524.5 378.5,524.5C 402.167,524.5 425.833,524.5 449.5,524.5C 449.5,524.833 449.5,525.167 449.5,525.5C 449.5,550.167 449.5,574.833 449.5,599.5C 424.833,599.5 400.167,599.5 375.5,599.5C 375.177,574.425 375.51,549.425 376.5,524.5 Z"/></g>
<g><path style="opacity:1" fill="#e0acb6" d="M 449.5,525.5 C 449.5,525.167 449.5,524.833 449.5,524.5C 470.167,524.5 490.833,524.5 511.5,524.5C 493.007,525.497 474.341,525.83 455.5,525.5C 454.833,525.5 454.167,525.5 453.5,525.5C 452.167,526.833 450.833,526.833 449.5,525.5 Z"/></g>
<g><path style="opacity:1" fill="#eacad0" d="M 524.5,524.5 C 525.5,524.5 526.5,524.5 527.5,524.5C 551.5,524.5 575.5,524.5 599.5,524.5C 599.5,549.5 599.5,574.5 599.5,599.5C 574.5,599.5 549.5,599.5 524.5,599.5C 524.5,574.5 524.5,549.5 524.5,524.5 Z"/></g>
<g><path style="opacity:1" fill="#dfadb4" d="M -0.5,524.5 C 21.1667,524.5 42.8333,524.5 64.5,524.5C 66.6074,525.468 68.9407,525.802 71.5,525.5C 71.5,550.167 71.5,574.833 71.5,599.5C 47.5,599.5 23.5,599.5 -0.5,599.5C -0.5,574.5 -0.5,549.5 -0.5,524.5 Z"/></g>
<g><path style="opacity:1" fill="#deaeb4" d="M 149.5,524.5 C 150.833,524.5 152.167,524.5 153.5,524.5C 154.997,525.306 156.664,525.972 158.5,526.5C 180.294,525.844 201.961,525.177 223.5,524.5C 223.833,524.5 224.167,524.5 224.5,524.5C 224.5,524.833 224.5,525.167 224.5,525.5C 224.5,550.167 224.5,574.833 224.5,599.5C 199.5,599.5 174.5,599.5 149.5,599.5C 149.5,574.5 149.5,549.5 149.5,524.5 Z"/></g>
<g><path style="opacity:1" fill="#e0acb6" d="M 153.5,524.5 C 176.833,524.5 200.167,524.5 223.5,524.5C 201.961,525.177 180.294,525.844 158.5,526.5C 156.664,525.972 154.997,525.306 153.5,524.5 Z"/></g>
<g><path style="opacity:1" fill="#efc8d0" d="M 374.5,524.5 C 375.167,524.5 375.833,524.5 376.5,524.5C 375.51,549.425 375.177,574.425 375.5,599.5C 375.167,599.5 374.833,599.5 374.5,599.5C 374.5,574.5 374.5,549.5 374.5,524.5 Z"/></g>
<g><path style="opacity:1" fill="#dfadb3" d="M 511.5,524.5 C 514.167,524.5 516.833,524.5 519.5,524.5C 520.833,524.5 522.167,524.5 523.5,524.5C 522.519,549.455 522.186,574.455 522.5,599.5C 520.833,599.5 519.167,599.5 517.5,599.5C 516.833,503.5 516.167,503.5 515.5,599.5C 496.833,599.5 478.167,599.5 459.5,599.5C 458.833,503.5 458.167,503.5 457.5,599.5C 456.5,599.5 455.5,599.5 454.5,599.5C 454.186,574.789 454.519,550.122 455.5,525.5C 474.341,525.83 493.007,525.497 511.5,524.5 Z"/></g>
<g><path style="opacity:1" fill="#dcaeb6" d="M 64.5,524.5 C 67.1667,524.5 69.8333,524.5 72.5,524.5C 73.1667,524.5 73.8333,524.5 74.5,524.5C 74.5,525.167 74.5,525.833 74.5,526.5C 74.5,550.833 74.5,575.167 74.5,599.5C 73.5,599.5 72.5,599.5 71.5,599.5C 71.5,574.833 71.5,550.167 71.5,525.5C 68.9407,525.802 66.6074,525.468 64.5,524.5 Z"/></g>
<g><path style="opacity:1" fill="#efc8d0" d="M 74.5,526.5 C 76.4903,550.477 77.157,574.81 76.5,599.5C 75.8333,599.5 75.1667,599.5 74.5,599.5C 74.5,575.167 74.5,550.833 74.5,526.5 Z"/></g>
<g><path style="opacity:1" fill="#ddadb6" d="M 303.5,524.5 C 326.5,524.5 349.5,524.5 372.5,524.5C 373.167,524.5 373.833,524.5 374.5,524.5C 374.5,549.5 374.5,574.5 374.5,599.5C 373.5,599.5 372.5,599.5 371.5,599.5C 371.667,574.831 371.5,550.164 371,525.5C 370.586,525.957 370.086,526.291 369.5,526.5C 347.372,525.844 325.372,525.177 303.5,524.5 Z"/></g>
<g><path style="opacity:1" fill="#deaeb4" d="M 449.5,525.5 C 450.833,526.833 452.167,526.833 453.5,525.5C 453.5,550.167 453.5,574.833 453.5,599.5C 452.167,599.5 450.833,599.5 449.5,599.5C 449.5,574.833 449.5,550.167 449.5,525.5 Z"/></g>
<g><path style="opacity:1" fill="#edc9cd" d="M 224.5,525.5 C 225.289,525.783 225.956,526.283 226.5,527C 225.506,551.092 225.172,575.259 225.5,599.5C 225.167,599.5 224.833,599.5 224.5,599.5C 224.5,574.833 224.5,550.167 224.5,525.5 Z"/></g>
<g><path style="opacity:1" fill="#ddaeb1" d="M 303.5,599.5 C 302.833,599.5 302.167,599.5 301.5,599.5C 302.167,503.5 302.833,503.5 303.5,599.5 Z"/></g>
<g><path style="opacity:1" fill="#dcaeb2" d="M 453.5,525.5 C 454.167,525.5 454.833,525.5 455.5,525.5C 454.519,550.122 454.186,574.789 454.5,599.5C 454.167,599.5 453.833,599.5 453.5,599.5C 453.5,574.833 453.5,550.167 453.5,525.5 Z"/></g>
<g><path style="opacity:1" fill="#deadb5" d="M 459.5,599.5 C 458.833,599.5 458.167,599.5 457.5,599.5C 458.167,503.5 458.833,503.5 459.5,599.5 Z"/></g>
<g><path style="opacity:1" fill="#dcaeb5" d="M 517.5,599.5 C 516.833,599.5 516.167,599.5 515.5,599.5C 516.167,503.5 516.833,503.5 517.5,599.5 Z"/></g>
<g><path style="opacity:1" fill="#dbafb5" d="M 523.5,524.5 C 523.833,524.5 524.167,524.5 524.5,524.5C 524.5,549.5 524.5,574.5 524.5,599.5C 523.833,599.5 523.167,599.5 522.5,599.5C 522.186,574.455 522.519,549.455 523.5,524.5 Z"/></g>
</svg>
